<svg width="5000" height="800" viewBox="0 0 5000 800" fill="none" xmlns="http://www.w3.org/2000/svg">
<g clip-path="url(#clip0)">
<rect width="5000" height="800" fill="white" fill-opacity="0.59"/>
<line y1="35.5" x2="5000" y2="35.5" stroke="black"/>
<line y1="72" x2="5000" y2="72" stroke="black" stroke-width="2"/>
<line y1="108.5" x2="5000" y2="108.5" stroke="black"/>
<line y1="143" x2="5000" y2="143" stroke="black" stroke-width="4"/>
<line y1="181.5" x2="5000" y2="181.5" stroke="black"/>
<line y1="217" x2="5000" y2="217" stroke="black" stroke-width="2"/>
<line y1="254.5" x2="5000" y2="254.5" stroke="black"/>
<line y1="290" x2="5000" y2="290" stroke="black" stroke-width="2"/>
<line y1="326.5" x2="5000" y2="326.5" stroke="black"/>
<line y1="362" x2="5000" y2="362" stroke="black" stroke-width="4"/>
<line y1="400.5" x2="5000" y2="400.5" stroke="black"/>
<line y1="436" x2="5000" y2="436" stroke="black" stroke-width="2"/>
<line y1="473.5" x2="5000" y2="473.5" stroke="black"/>
<line y1="509" x2="5000" y2="509" stroke="black" stroke-width="2"/>
<line y1="545.5" x2="5000" y2="545.5" stroke="black"/>
<line y1="581" x2="5000" y2="581" stroke="black" stroke-width="4"/>
<line y1="618.5" x2="5000" y2="618.5" stroke="black"/>
<line y1="655" x2="5000" y2="655" stroke="black" stroke-width="2"/>
<line y1="691.5" x2="5000" y2="691.5" stroke="black"/>
<line y1="727" x2="5000" y2="727" stroke="black" stroke-width="2"/>
<line y1="764.5" x2="5000" y2="764.5" stroke="black"/>
<path d="M19.1055 133.75C18.7279 134.199 18.2754 134.561 17.748 134.834C17.2272 135.107 16.6543 135.244 16.0293 135.244C15.209 135.244 14.4928 135.042 13.8809 134.639C13.2754 134.235 12.8066 133.669 12.4746 132.939C12.1426 132.204 11.9766 131.393 11.9766 130.508C11.9766 129.557 12.1556 128.701 12.5137 127.939C12.8783 127.178 13.3926 126.595 14.0566 126.191C14.7207 125.788 15.4954 125.586 16.3809 125.586C17.7871 125.586 18.8939 126.113 19.7012 127.168C20.515 128.216 20.9219 129.648 20.9219 131.465V131.992C20.9219 134.759 20.375 136.781 19.2812 138.057C18.1875 139.326 16.5371 139.977 14.3301 140.01H13.9785V138.486H14.3594C15.8503 138.46 16.9961 138.073 17.7969 137.324C18.5977 136.569 19.0339 135.378 19.1055 133.75ZM16.3223 133.75C16.9277 133.75 17.4844 133.564 17.9922 133.193C18.5065 132.822 18.8809 132.363 19.1152 131.816V131.094C19.1152 129.909 18.8581 128.945 18.3438 128.203C17.8294 127.461 17.1784 127.09 16.3906 127.09C15.5964 127.09 14.9583 127.396 14.4766 128.008C13.9948 128.613 13.7539 129.414 13.7539 130.41C13.7539 131.38 13.985 132.181 14.4473 132.812C14.916 133.438 15.541 133.75 16.3223 133.75ZM23.5391 139.053C23.5391 138.74 23.6302 138.48 23.8125 138.271C24.0013 138.063 24.2812 137.959 24.6523 137.959C25.0234 137.959 25.3034 138.063 25.4922 138.271C25.6875 138.48 25.7852 138.74 25.7852 139.053C25.7852 139.352 25.6875 139.603 25.4922 139.805C25.3034 140.007 25.0234 140.107 24.6523 140.107C24.2812 140.107 24.0013 140.007 23.8125 139.805C23.6302 139.603 23.5391 139.352 23.5391 139.053ZM23.5488 130.43C23.5488 130.117 23.64 129.857 23.8223 129.648C24.0111 129.44 24.291 129.336 24.6621 129.336C25.0332 129.336 25.3132 129.44 25.502 129.648C25.6973 129.857 25.7949 130.117 25.7949 130.43C25.7949 130.729 25.6973 130.98 25.502 131.182C25.3132 131.383 25.0332 131.484 24.6621 131.484C24.291 131.484 24.0111 131.383 23.8223 131.182C23.64 130.98 23.5488 130.729 23.5488 130.43ZM37.1719 133.936C37.1719 136.051 36.8105 137.624 36.0879 138.652C35.3652 139.681 34.2357 140.195 32.6992 140.195C31.1823 140.195 30.0592 139.694 29.3301 138.691C28.6009 137.682 28.2233 136.178 28.1973 134.18V131.768C28.1973 129.678 28.5586 128.125 29.2812 127.109C30.0039 126.094 31.1367 125.586 32.6797 125.586C34.2096 125.586 35.3359 126.077 36.0586 127.061C36.7812 128.037 37.1523 129.548 37.1719 131.592V133.936ZM35.3652 131.465C35.3652 129.935 35.1504 128.822 34.7207 128.125C34.291 127.422 33.6107 127.07 32.6797 127.07C31.7552 127.07 31.0814 127.419 30.6582 128.115C30.235 128.812 30.0169 129.883 30.0039 131.328V134.219C30.0039 135.755 30.2253 136.891 30.668 137.627C31.1172 138.356 31.7943 138.721 32.6992 138.721C33.5911 138.721 34.252 138.376 34.6816 137.686C35.1178 136.995 35.3457 135.908 35.3652 134.424V131.465ZM48.4023 133.936C48.4023 136.051 48.041 137.624 47.3184 138.652C46.5957 139.681 45.4661 140.195 43.9297 140.195C42.4128 140.195 41.2897 139.694 40.5605 138.691C39.8314 137.682 39.4538 136.178 39.4277 134.18V131.768C39.4277 129.678 39.7891 128.125 40.5117 127.109C41.2344 126.094 42.3672 125.586 43.9102 125.586C45.4401 125.586 46.5664 126.077 47.2891 127.061C48.0117 128.037 48.3828 129.548 48.4023 131.592V133.936ZM46.5957 131.465C46.5957 129.935 46.3809 128.822 45.9512 128.125C45.5215 127.422 44.8411 127.07 43.9102 127.07C42.9857 127.07 42.3118 127.419 41.8887 128.115C41.4655 128.812 41.2474 129.883 41.2344 131.328V134.219C41.2344 135.755 41.4557 136.891 41.8984 137.627C42.3477 138.356 43.0247 138.721 43.9297 138.721C44.8216 138.721 45.4824 138.376 45.9121 137.686C46.3483 136.995 46.5762 135.908 46.5957 134.424V131.465Z" fill="black"/>
<path d="M7.11914 359H5.30273V346.959L1.66016 348.297V346.656L6.83594 344.713H7.11914V359ZM21.7285 359H12.4121V357.701L17.334 352.232C18.0632 351.406 18.5645 350.735 18.8379 350.221C19.1178 349.7 19.2578 349.163 19.2578 348.609C19.2578 347.867 19.0332 347.258 18.584 346.783C18.1348 346.308 17.5358 346.07 16.7871 346.07C15.8887 346.07 15.1888 346.327 14.6875 346.842C14.1927 347.35 13.9453 348.059 13.9453 348.971H12.1387C12.1387 347.662 12.5586 346.604 13.3984 345.797C14.2448 344.99 15.3743 344.586 16.7871 344.586C18.1087 344.586 19.1536 344.934 19.9219 345.631C20.6901 346.321 21.0742 347.242 21.0742 348.395C21.0742 349.794 20.1823 351.461 18.3984 353.395L14.5898 357.525H21.7285V359ZM23.7695 358.053C23.7695 357.74 23.8607 357.48 24.043 357.271C24.2318 357.063 24.5117 356.959 24.8828 356.959C25.2539 356.959 25.5339 357.063 25.7227 357.271C25.918 357.48 26.0156 357.74 26.0156 358.053C26.0156 358.352 25.918 358.603 25.7227 358.805C25.5339 359.007 25.2539 359.107 24.8828 359.107C24.5117 359.107 24.2318 359.007 24.043 358.805C23.8607 358.603 23.7695 358.352 23.7695 358.053ZM23.7793 349.43C23.7793 349.117 23.8704 348.857 24.0527 348.648C24.2415 348.44 24.5215 348.336 24.8926 348.336C25.2637 348.336 25.5436 348.44 25.7324 348.648C25.9277 348.857 26.0254 349.117 26.0254 349.43C26.0254 349.729 25.9277 349.98 25.7324 350.182C25.5436 350.383 25.2637 350.484 24.8926 350.484C24.5215 350.484 24.2415 350.383 24.0527 350.182C23.8704 349.98 23.7793 349.729 23.7793 349.43ZM37.4023 352.936C37.4023 355.051 37.041 356.624 36.3184 357.652C35.5957 358.681 34.4661 359.195 32.9297 359.195C31.4128 359.195 30.2897 358.694 29.5605 357.691C28.8314 356.682 28.4538 355.178 28.4277 353.18V350.768C28.4277 348.678 28.7891 347.125 29.5117 346.109C30.2344 345.094 31.3672 344.586 32.9102 344.586C34.4401 344.586 35.5664 345.077 36.2891 346.061C37.0117 347.037 37.3828 348.548 37.4023 350.592V352.936ZM35.5957 350.465C35.5957 348.935 35.3809 347.822 34.9512 347.125C34.5215 346.422 33.8411 346.07 32.9102 346.07C31.9857 346.07 31.3118 346.419 30.8887 347.115C30.4655 347.812 30.2474 348.883 30.2344 350.328V353.219C30.2344 354.755 30.4557 355.891 30.8984 356.627C31.3477 357.356 32.0247 357.721 32.9297 357.721C33.8216 357.721 34.4824 357.376 34.9121 356.686C35.3483 355.995 35.5762 354.908 35.5957 353.424V350.465ZM48.6328 352.936C48.6328 355.051 48.2715 356.624 47.5488 357.652C46.8262 358.681 45.6966 359.195 44.1602 359.195C42.6432 359.195 41.5202 358.694 40.791 357.691C40.0618 356.682 39.6842 355.178 39.6582 353.18V350.768C39.6582 348.678 40.0195 347.125 40.7422 346.109C41.4648 345.094 42.5977 344.586 44.1406 344.586C45.6706 344.586 46.7969 345.077 47.5195 346.061C48.2422 347.037 48.6133 348.548 48.6328 350.592V352.936ZM46.8262 350.465C46.8262 348.935 46.6113 347.822 46.1816 347.125C45.752 346.422 45.0716 346.07 44.1406 346.07C43.2161 346.07 42.5423 346.419 42.1191 347.115C41.696 347.812 41.4779 348.883 41.4648 350.328V353.219C41.4648 354.755 41.6862 355.891 42.1289 356.627C42.5781 357.356 43.2552 357.721 44.1602 357.721C45.0521 357.721 45.7129 357.376 46.1426 356.686C46.5788 355.995 46.8066 354.908 46.8262 353.424V350.465Z" fill="black"/>
<path d="M7.11914 578H5.30273V565.959L1.66016 567.297V565.656L6.83594 563.713H7.11914V578ZM13.2422 570.871L13.9648 563.781H21.25V565.451H15.498L15.0684 569.328C15.765 568.918 16.556 568.713 17.4414 568.713C18.737 568.713 19.7656 569.143 20.5273 570.002C21.2891 570.855 21.6699 572.01 21.6699 573.469C21.6699 574.934 21.2728 576.089 20.4785 576.936C19.6908 577.775 18.5872 578.195 17.168 578.195C15.9115 578.195 14.8861 577.847 14.0918 577.15C13.2975 576.454 12.8451 575.49 12.7344 574.26H14.4434C14.554 575.074 14.8438 575.689 15.3125 576.105C15.7812 576.516 16.3997 576.721 17.168 576.721C18.0078 576.721 18.6654 576.434 19.1406 575.861C19.6224 575.288 19.8633 574.497 19.8633 573.488C19.8633 572.538 19.6029 571.776 19.082 571.203C18.5677 570.624 17.8809 570.334 17.0215 570.334C16.2337 570.334 15.6152 570.507 15.166 570.852L14.6875 571.242L13.2422 570.871ZM23.7695 577.053C23.7695 576.74 23.8607 576.48 24.043 576.271C24.2318 576.063 24.5117 575.959 24.8828 575.959C25.2539 575.959 25.5339 576.063 25.7227 576.271C25.918 576.48 26.0156 576.74 26.0156 577.053C26.0156 577.352 25.918 577.603 25.7227 577.805C25.5339 578.007 25.2539 578.107 24.8828 578.107C24.5117 578.107 24.2318 578.007 24.043 577.805C23.8607 577.603 23.7695 577.352 23.7695 577.053ZM23.7793 568.43C23.7793 568.117 23.8704 567.857 24.0527 567.648C24.2415 567.44 24.5215 567.336 24.8926 567.336C25.2637 567.336 25.5436 567.44 25.7324 567.648C25.9277 567.857 26.0254 568.117 26.0254 568.43C26.0254 568.729 25.9277 568.98 25.7324 569.182C25.5436 569.383 25.2637 569.484 24.8926 569.484C24.5215 569.484 24.2415 569.383 24.0527 569.182C23.8704 568.98 23.7793 568.729 23.7793 568.43ZM37.4023 571.936C37.4023 574.051 37.041 575.624 36.3184 576.652C35.5957 577.681 34.4661 578.195 32.9297 578.195C31.4128 578.195 30.2897 577.694 29.5605 576.691C28.8314 575.682 28.4538 574.178 28.4277 572.18V569.768C28.4277 567.678 28.7891 566.125 29.5117 565.109C30.2344 564.094 31.3672 563.586 32.9102 563.586C34.4401 563.586 35.5664 564.077 36.2891 565.061C37.0117 566.037 37.3828 567.548 37.4023 569.592V571.936ZM35.5957 569.465C35.5957 567.935 35.3809 566.822 34.9512 566.125C34.5215 565.422 33.8411 565.07 32.9102 565.07C31.9857 565.07 31.3118 565.419 30.8887 566.115C30.4655 566.812 30.2474 567.883 30.2344 569.328V572.219C30.2344 573.755 30.4557 574.891 30.8984 575.627C31.3477 576.356 32.0247 576.721 32.9297 576.721C33.8216 576.721 34.4824 576.376 34.9121 575.686C35.3483 574.995 35.5762 573.908 35.5957 572.424V569.465ZM48.6328 571.936C48.6328 574.051 48.2715 575.624 47.5488 576.652C46.8262 577.681 45.6966 578.195 44.1602 578.195C42.6432 578.195 41.5202 577.694 40.791 576.691C40.0618 575.682 39.6842 574.178 39.6582 572.18V569.768C39.6582 567.678 40.0195 566.125 40.7422 565.109C41.4648 564.094 42.5977 563.586 44.1406 563.586C45.6706 563.586 46.7969 564.077 47.5195 565.061C48.2422 566.037 48.6133 567.548 48.6328 569.592V571.936ZM46.8262 569.465C46.8262 567.935 46.6113 566.822 46.1816 566.125C45.752 565.422 45.0716 565.07 44.1406 565.07C43.2161 565.07 42.5423 565.419 42.1191 566.115C41.696 566.812 41.4779 567.883 41.4648 569.328V572.219C41.4648 573.755 41.6862 574.891 42.1289 575.627C42.5781 576.356 43.2552 576.721 44.1602 576.721C45.0521 576.721 45.7129 576.376 46.1426 575.686C46.5788 574.995 46.8066 573.908 46.8262 572.424V569.465Z" fill="black"/>
<path d="M25.334 60.0684C25.334 60.6715 25.1735 61.2083 24.8525 61.6787C24.5371 62.1491 24.1082 62.5171 23.5659 62.7827C24.1968 63.0539 24.6948 63.4495 25.0601 63.9697C25.4308 64.4899 25.6162 65.0793 25.6162 65.7378C25.6162 66.7837 25.262 67.6165 24.5537 68.2363C23.8509 68.8561 22.924 69.166 21.7729 69.166C20.6108 69.166 19.6784 68.8561 18.9756 68.2363C18.2783 67.611 17.9297 66.7782 17.9297 65.7378C17.9297 65.0848 18.1068 64.4954 18.4609 63.9697C18.8206 63.444 19.3159 63.0456 19.9468 62.7744C19.41 62.5088 18.9867 62.1408 18.6768 61.6704C18.3669 61.2 18.2119 60.666 18.2119 60.0684C18.2119 59.0501 18.5384 58.2422 19.1914 57.6445C19.8444 57.0469 20.7049 56.748 21.7729 56.748C22.8354 56.748 23.6932 57.0469 24.3462 57.6445C25.0047 58.2422 25.334 59.0501 25.334 60.0684ZM24.0806 65.7046C24.0806 65.0295 23.8647 64.4788 23.4331 64.0527C23.007 63.6266 22.4481 63.4136 21.7563 63.4136C21.0646 63.4136 20.5085 63.6239 20.0879 64.0444C19.6729 64.465 19.4653 65.0184 19.4653 65.7046C19.4653 66.3908 19.6673 66.9303 20.0713 67.3232C20.4808 67.7161 21.048 67.9126 21.7729 67.9126C22.4924 67.9126 23.0568 67.7161 23.4663 67.3232C23.8758 66.9248 24.0806 66.3853 24.0806 65.7046ZM21.7729 58.0098C21.1698 58.0098 20.68 58.1979 20.3037 58.5742C19.9329 58.945 19.7476 59.4513 19.7476 60.0933C19.7476 60.7075 19.9302 61.2056 20.2954 61.5874C20.6662 61.9637 21.1587 62.1519 21.7729 62.1519C22.3872 62.1519 22.877 61.9637 23.2422 61.5874C23.613 61.2056 23.7983 60.7075 23.7983 60.0933C23.7983 59.479 23.6074 58.9782 23.2256 58.5908C22.8438 58.2035 22.3595 58.0098 21.7729 58.0098ZM27.6582 68.1948C27.6582 67.9292 27.7357 67.7078 27.8906 67.5308C28.0511 67.3537 28.2891 67.2651 28.6045 67.2651C28.9199 67.2651 29.1579 67.3537 29.3184 67.5308C29.4844 67.7078 29.5674 67.9292 29.5674 68.1948C29.5674 68.4494 29.4844 68.6624 29.3184 68.834C29.1579 69.0055 28.9199 69.0913 28.6045 69.0913C28.2891 69.0913 28.0511 69.0055 27.8906 68.834C27.7357 68.6624 27.6582 68.4494 27.6582 68.1948ZM27.6665 60.8652C27.6665 60.5996 27.744 60.3783 27.8989 60.2012C28.0594 60.0241 28.2974 59.9355 28.6128 59.9355C28.9282 59.9355 29.1662 60.0241 29.3267 60.2012C29.4927 60.3783 29.5757 60.5996 29.5757 60.8652C29.5757 61.1198 29.4927 61.3328 29.3267 61.5044C29.1662 61.6759 28.9282 61.7617 28.6128 61.7617C28.2974 61.7617 28.0594 61.6759 27.8989 61.5044C27.744 61.3328 27.6665 61.1198 27.6665 60.8652ZM39.2461 63.8452C39.2461 65.6437 38.939 66.9801 38.3247 67.8545C37.7104 68.7288 36.7503 69.166 35.4443 69.166C34.1549 69.166 33.2004 68.7399 32.5806 67.8877C31.9608 67.0299 31.6398 65.7516 31.6177 64.0527V62.0024C31.6177 60.2261 31.9248 58.9062 32.5391 58.043C33.1533 57.1797 34.1162 56.748 35.4277 56.748C36.7282 56.748 37.6855 57.1659 38.2998 58.0015C38.9141 58.8315 39.2295 60.1154 39.2461 61.853V63.8452ZM37.7104 61.7451C37.7104 60.4447 37.5278 59.4984 37.1626 58.9062C36.7974 58.3086 36.2191 58.0098 35.4277 58.0098C34.6419 58.0098 34.0692 58.3058 33.7095 58.8979C33.3498 59.4901 33.1644 60.4004 33.1533 61.6289V64.0859C33.1533 65.3919 33.3415 66.3576 33.7178 66.9829C34.0996 67.6027 34.6751 67.9126 35.4443 67.9126C36.2025 67.9126 36.7642 67.6193 37.1294 67.0327C37.5002 66.4461 37.6938 65.522 37.7104 64.2603V61.7451ZM48.792 63.8452C48.792 65.6437 48.4849 66.9801 47.8706 67.8545C47.2563 68.7288 46.2962 69.166 44.9902 69.166C43.7008 69.166 42.7463 68.7399 42.1265 67.8877C41.5067 67.0299 41.1857 65.7516 41.1636 64.0527V62.0024C41.1636 60.2261 41.4707 58.9062 42.085 58.043C42.6992 57.1797 43.6621 56.748 44.9736 56.748C46.2741 56.748 47.2314 57.1659 47.8457 58.0015C48.46 58.8315 48.7754 60.1154 48.792 61.853V63.8452ZM47.2563 61.7451C47.2563 60.4447 47.0737 59.4984 46.7085 58.9062C46.3433 58.3086 45.765 58.0098 44.9736 58.0098C44.1878 58.0098 43.6151 58.3058 43.2554 58.8979C42.8957 59.4901 42.7103 60.4004 42.6992 61.6289V64.0859C42.6992 65.3919 42.8874 66.3576 43.2637 66.9829C43.6455 67.6027 44.221 67.9126 44.9902 67.9126C45.7484 67.9126 46.3101 67.6193 46.6753 67.0327C47.0461 66.4461 47.2397 65.522 47.2563 64.2603V61.7451Z" fill="black"/>
<path d="M25.8071 1.77734L20.8018 13H19.1914L24.1802 2.17578H17.6392V0.914062H25.8071V1.77734ZM27.6582 12.1948C27.6582 11.9292 27.7357 11.7078 27.8906 11.5308C28.0511 11.3537 28.2891 11.2651 28.6045 11.2651C28.9199 11.2651 29.1579 11.3537 29.3184 11.5308C29.4844 11.7078 29.5674 11.9292 29.5674 12.1948C29.5674 12.4494 29.4844 12.6624 29.3184 12.834C29.1579 13.0055 28.9199 13.0913 28.6045 13.0913C28.2891 13.0913 28.0511 13.0055 27.8906 12.834C27.7357 12.6624 27.6582 12.4494 27.6582 12.1948ZM27.6665 4.86523C27.6665 4.59961 27.744 4.37826 27.8989 4.20117C28.0594 4.02409 28.2974 3.93555 28.6128 3.93555C28.9282 3.93555 29.1662 4.02409 29.3267 4.20117C29.4927 4.37826 29.5757 4.59961 29.5757 4.86523C29.5757 5.11979 29.4927 5.33285 29.3267 5.50439C29.1662 5.67594 28.9282 5.76172 28.6128 5.76172C28.2974 5.76172 28.0594 5.67594 27.8989 5.50439C27.744 5.33285 27.6665 5.11979 27.6665 4.86523ZM39.2461 7.84521C39.2461 9.64372 38.939 10.9801 38.3247 11.8545C37.7104 12.7288 36.7503 13.166 35.4443 13.166C34.1549 13.166 33.2004 12.7399 32.5806 11.8877C31.9608 11.0299 31.6398 9.75163 31.6177 8.05273V6.00244C31.6177 4.22607 31.9248 2.90625 32.5391 2.04297C33.1533 1.17969 34.1162 0.748047 35.4277 0.748047C36.7282 0.748047 37.6855 1.16585 38.2998 2.00146C38.9141 2.83154 39.2295 4.1154 39.2461 5.85303V7.84521ZM37.7104 5.74512C37.7104 4.44466 37.5278 3.49837 37.1626 2.90625C36.7974 2.30859 36.2191 2.00977 35.4277 2.00977C34.6419 2.00977 34.0692 2.30583 33.7095 2.89795C33.3498 3.49007 33.1644 4.40039 33.1533 5.62891V8.08594C33.1533 9.39193 33.3415 10.3576 33.7178 10.9829C34.0996 11.6027 34.6751 11.9126 35.4443 11.9126C36.2025 11.9126 36.7642 11.6193 37.1294 11.0327C37.5002 10.4461 37.6938 9.52197 37.7104 8.26025V5.74512ZM48.792 7.84521C48.792 9.64372 48.4849 10.9801 47.8706 11.8545C47.2563 12.7288 46.2962 13.166 44.9902 13.166C43.7008 13.166 42.7463 12.7399 42.1265 11.8877C41.5067 11.0299 41.1857 9.75163 41.1636 8.05273V6.00244C41.1636 4.22607 41.4707 2.90625 42.085 2.04297C42.6992 1.17969 43.6621 0.748047 44.9736 0.748047C46.2741 0.748047 47.2314 1.16585 47.8457 2.00146C48.46 2.83154 48.7754 4.1154 48.792 5.85303V7.84521ZM47.2563 5.74512C47.2563 4.44466 47.0737 3.49837 46.7085 2.90625C46.3433 2.30859 45.765 2.00977 44.9736 2.00977C44.1878 2.00977 43.6151 2.30583 43.2554 2.89795C42.8957 3.49007 42.7103 4.40039 42.6992 5.62891V8.08594C42.6992 9.39193 42.8874 10.3576 43.2637 10.9829C43.6455 11.6027 44.221 11.9126 44.9902 11.9126C45.7484 11.9126 46.3101 11.6193 46.6753 11.0327C47.0461 10.4461 47.2397 9.52197 47.2563 8.26025V5.74512Z" fill="black"/>
<path d="M13.0513 288H11.5073V277.765L8.41113 278.902V277.508L12.8105 275.856H13.0513V288ZM22.5972 288H21.0532V277.765L17.957 278.902V277.508L22.3564 275.856H22.5972V288ZM27.2041 287.195C27.2041 286.929 27.2816 286.708 27.4365 286.531C27.597 286.354 27.835 286.265 28.1504 286.265C28.4658 286.265 28.7038 286.354 28.8643 286.531C29.0303 286.708 29.1133 286.929 29.1133 287.195C29.1133 287.449 29.0303 287.662 28.8643 287.834C28.7038 288.006 28.4658 288.091 28.1504 288.091C27.835 288.091 27.597 288.006 27.4365 287.834C27.2816 287.662 27.2041 287.449 27.2041 287.195ZM27.2124 279.865C27.2124 279.6 27.2899 279.378 27.4448 279.201C27.6053 279.024 27.8433 278.936 28.1587 278.936C28.4741 278.936 28.7121 279.024 28.8726 279.201C29.0386 279.378 29.1216 279.6 29.1216 279.865C29.1216 280.12 29.0386 280.333 28.8726 280.504C28.7121 280.676 28.4741 280.762 28.1587 280.762C27.8433 280.762 27.6053 280.676 27.4448 280.504C27.2899 280.333 27.2124 280.12 27.2124 279.865ZM38.792 282.845C38.792 284.644 38.4849 285.98 37.8706 286.854C37.2563 287.729 36.2962 288.166 34.9902 288.166C33.7008 288.166 32.7463 287.74 32.1265 286.888C31.5067 286.03 31.1857 284.752 31.1636 283.053V281.002C31.1636 279.226 31.4707 277.906 32.085 277.043C32.6992 276.18 33.6621 275.748 34.9736 275.748C36.2741 275.748 37.2314 276.166 37.8457 277.001C38.46 277.832 38.7754 279.115 38.792 280.853V282.845ZM37.2563 280.745C37.2563 279.445 37.0737 278.498 36.7085 277.906C36.3433 277.309 35.765 277.01 34.9736 277.01C34.1878 277.01 33.6151 277.306 33.2554 277.898C32.8957 278.49 32.7103 279.4 32.6992 280.629V283.086C32.6992 284.392 32.8874 285.358 33.2637 285.983C33.6455 286.603 34.221 286.913 34.9902 286.913C35.7484 286.913 36.3101 286.619 36.6753 286.033C37.0461 285.446 37.2397 284.522 37.2563 283.26V280.745ZM48.3379 282.845C48.3379 284.644 48.0308 285.98 47.4165 286.854C46.8022 287.729 45.8421 288.166 44.5361 288.166C43.2467 288.166 42.2922 287.74 41.6724 286.888C41.0526 286.03 40.7316 284.752 40.7095 283.053V281.002C40.7095 279.226 41.0166 277.906 41.6309 277.043C42.2451 276.18 43.208 275.748 44.5195 275.748C45.82 275.748 46.7773 276.166 47.3916 277.001C48.0059 277.832 48.3213 279.115 48.3379 280.853V282.845ZM46.8022 280.745C46.8022 279.445 46.6196 278.498 46.2544 277.906C45.8892 277.309 45.3109 277.01 44.5195 277.01C43.7337 277.01 43.161 277.306 42.8013 277.898C42.4416 278.49 42.2562 279.4 42.2451 280.629V283.086C42.2451 284.392 42.4333 285.358 42.8096 285.983C43.1914 286.603 43.7669 286.913 44.5361 286.913C45.2943 286.913 45.856 286.619 46.2212 286.033C46.592 285.446 46.7856 284.522 46.8022 283.26V280.745Z" fill="black"/>
<path d="M13.0513 507H11.5073V496.765L8.41113 497.902V496.508L12.8105 494.856H13.0513V507ZM24.0332 502.941H25.71V504.194H24.0332V507H22.4893V504.194H16.9858V503.29L22.3979 494.914H24.0332V502.941ZM18.729 502.941H22.4893V497.014L22.3066 497.346L18.729 502.941ZM27.2041 506.195C27.2041 505.929 27.2816 505.708 27.4365 505.531C27.597 505.354 27.835 505.265 28.1504 505.265C28.4658 505.265 28.7038 505.354 28.8643 505.531C29.0303 505.708 29.1133 505.929 29.1133 506.195C29.1133 506.449 29.0303 506.662 28.8643 506.834C28.7038 507.006 28.4658 507.091 28.1504 507.091C27.835 507.091 27.597 507.006 27.4365 506.834C27.2816 506.662 27.2041 506.449 27.2041 506.195ZM27.2124 498.865C27.2124 498.6 27.2899 498.378 27.4448 498.201C27.6053 498.024 27.8433 497.936 28.1587 497.936C28.4741 497.936 28.7121 498.024 28.8726 498.201C29.0386 498.378 29.1216 498.6 29.1216 498.865C29.1216 499.12 29.0386 499.333 28.8726 499.504C28.7121 499.676 28.4741 499.762 28.1587 499.762C27.8433 499.762 27.6053 499.676 27.4448 499.504C27.2899 499.333 27.2124 499.12 27.2124 498.865ZM38.792 501.845C38.792 503.644 38.4849 504.98 37.8706 505.854C37.2563 506.729 36.2962 507.166 34.9902 507.166C33.7008 507.166 32.7463 506.74 32.1265 505.888C31.5067 505.03 31.1857 503.752 31.1636 502.053V500.002C31.1636 498.226 31.4707 496.906 32.085 496.043C32.6992 495.18 33.6621 494.748 34.9736 494.748C36.2741 494.748 37.2314 495.166 37.8457 496.001C38.46 496.832 38.7754 498.115 38.792 499.853V501.845ZM37.2563 499.745C37.2563 498.445 37.0737 497.498 36.7085 496.906C36.3433 496.309 35.765 496.01 34.9736 496.01C34.1878 496.01 33.6151 496.306 33.2554 496.898C32.8957 497.49 32.7103 498.4 32.6992 499.629V502.086C32.6992 503.392 32.8874 504.358 33.2637 504.983C33.6455 505.603 34.221 505.913 34.9902 505.913C35.7484 505.913 36.3101 505.619 36.6753 505.033C37.0461 504.446 37.2397 503.522 37.2563 502.26V499.745ZM48.3379 501.845C48.3379 503.644 48.0308 504.98 47.4165 505.854C46.8022 506.729 45.8421 507.166 44.5361 507.166C43.2467 507.166 42.2922 506.74 41.6724 505.888C41.0526 505.03 40.7316 503.752 40.7095 502.053V500.002C40.7095 498.226 41.0166 496.906 41.6309 496.043C42.2451 495.18 43.208 494.748 44.5195 494.748C45.82 494.748 46.7773 495.166 47.3916 496.001C48.0059 496.832 48.3213 498.115 48.3379 499.853V501.845ZM46.8022 499.745C46.8022 498.445 46.6196 497.498 46.2544 496.906C45.8892 496.309 45.3109 496.01 44.5195 496.01C43.7337 496.01 43.161 496.306 42.8013 496.898C42.4416 497.49 42.2562 498.4 42.2451 499.629V502.086C42.2451 503.392 42.4333 504.358 42.8096 504.983C43.1914 505.603 43.7669 505.913 44.5361 505.913C45.2943 505.913 45.856 505.619 46.2212 505.033C46.592 504.446 46.7856 503.522 46.8022 502.26V499.745Z" fill="black"/>
<path d="M13.0513 215H11.5073V204.765L8.41113 205.902V204.508L12.8105 202.856H13.0513V215ZM25.1289 209.845C25.1289 211.644 24.8218 212.98 24.2075 213.854C23.5933 214.729 22.6331 215.166 21.3271 215.166C20.0378 215.166 19.0832 214.74 18.4634 213.888C17.8436 213.03 17.5226 211.752 17.5005 210.053V208.002C17.5005 206.226 17.8076 204.906 18.4219 204.043C19.0361 203.18 19.999 202.748 21.3105 202.748C22.611 202.748 23.5684 203.166 24.1826 204.001C24.7969 204.832 25.1123 206.115 25.1289 207.853V209.845ZM23.5933 207.745C23.5933 206.445 23.4106 205.498 23.0454 204.906C22.6802 204.309 22.1019 204.01 21.3105 204.01C20.5247 204.01 19.952 204.306 19.5923 204.898C19.2326 205.49 19.0472 206.4 19.0361 207.629V210.086C19.0361 211.392 19.2243 212.358 19.6006 212.983C19.9824 213.603 20.5579 213.913 21.3271 213.913C22.0853 213.913 22.647 213.619 23.0122 213.033C23.383 212.446 23.5767 211.522 23.5933 210.26V207.745ZM27.2041 214.195C27.2041 213.929 27.2816 213.708 27.4365 213.531C27.597 213.354 27.835 213.265 28.1504 213.265C28.4658 213.265 28.7038 213.354 28.8643 213.531C29.0303 213.708 29.1133 213.929 29.1133 214.195C29.1133 214.449 29.0303 214.662 28.8643 214.834C28.7038 215.006 28.4658 215.091 28.1504 215.091C27.835 215.091 27.597 215.006 27.4365 214.834C27.2816 214.662 27.2041 214.449 27.2041 214.195ZM27.2124 206.865C27.2124 206.6 27.2899 206.378 27.4448 206.201C27.6053 206.024 27.8433 205.936 28.1587 205.936C28.4741 205.936 28.7121 206.024 28.8726 206.201C29.0386 206.378 29.1216 206.6 29.1216 206.865C29.1216 207.12 29.0386 207.333 28.8726 207.504C28.7121 207.676 28.4741 207.762 28.1587 207.762C27.8433 207.762 27.6053 207.676 27.4448 207.504C27.2899 207.333 27.2124 207.12 27.2124 206.865ZM38.792 209.845C38.792 211.644 38.4849 212.98 37.8706 213.854C37.2563 214.729 36.2962 215.166 34.9902 215.166C33.7008 215.166 32.7463 214.74 32.1265 213.888C31.5067 213.03 31.1857 211.752 31.1636 210.053V208.002C31.1636 206.226 31.4707 204.906 32.085 204.043C32.6992 203.18 33.6621 202.748 34.9736 202.748C36.2741 202.748 37.2314 203.166 37.8457 204.001C38.46 204.832 38.7754 206.115 38.792 207.853V209.845ZM37.2563 207.745C37.2563 206.445 37.0737 205.498 36.7085 204.906C36.3433 204.309 35.765 204.01 34.9736 204.01C34.1878 204.01 33.6151 204.306 33.2554 204.898C32.8957 205.49 32.7103 206.4 32.6992 207.629V210.086C32.6992 211.392 32.8874 212.358 33.2637 212.983C33.6455 213.603 34.221 213.913 34.9902 213.913C35.7484 213.913 36.3101 213.619 36.6753 213.033C37.0461 212.446 37.2397 211.522 37.2563 210.26V207.745ZM48.3379 209.845C48.3379 211.644 48.0308 212.98 47.4165 213.854C46.8022 214.729 45.8421 215.166 44.5361 215.166C43.2467 215.166 42.2922 214.74 41.6724 213.888C41.0526 213.03 40.7316 211.752 40.7095 210.053V208.002C40.7095 206.226 41.0166 204.906 41.6309 204.043C42.2451 203.18 43.208 202.748 44.5195 202.748C45.82 202.748 46.7773 203.166 47.3916 204.001C48.0059 204.832 48.3213 206.115 48.3379 207.853V209.845ZM46.8022 207.745C46.8022 206.445 46.6196 205.498 46.2544 204.906C45.8892 204.309 45.3109 204.01 44.5195 204.01C43.7337 204.01 43.161 204.306 42.8013 204.898C42.4416 205.49 42.2562 206.4 42.2451 207.629V210.086C42.2451 211.392 42.4333 212.358 42.8096 212.983C43.1914 213.603 43.7669 213.913 44.5361 213.913C45.2943 213.913 45.856 213.619 46.2212 213.033C46.592 212.446 46.7856 211.522 46.8022 210.26V207.745Z" fill="black"/>
<path d="M13.0513 434H11.5073V423.765L8.41113 424.902V423.508L12.8105 421.856H13.0513V434ZM19.7832 427.21H20.937C21.6619 427.199 22.2319 427.008 22.647 426.637C23.062 426.266 23.2695 425.766 23.2695 425.135C23.2695 423.718 22.564 423.01 21.1528 423.01C20.4888 423.01 19.9575 423.201 19.5591 423.583C19.1662 423.959 18.9697 424.46 18.9697 425.085H17.4341C17.4341 424.128 17.7827 423.333 18.48 422.703C19.1828 422.066 20.0737 421.748 21.1528 421.748C22.2928 421.748 23.1865 422.05 23.834 422.653C24.4814 423.256 24.8052 424.094 24.8052 425.168C24.8052 425.694 24.6336 426.203 24.2905 426.695C23.953 427.188 23.4909 427.556 22.9043 427.799C23.5684 428.01 24.0802 428.358 24.4399 428.845C24.8052 429.332 24.9878 429.927 24.9878 430.63C24.9878 431.715 24.6336 432.575 23.9253 433.211C23.217 433.848 22.2956 434.166 21.1611 434.166C20.0267 434.166 19.1025 433.859 18.3887 433.245C17.6803 432.63 17.3262 431.82 17.3262 430.812H18.8701C18.8701 431.449 19.0776 431.958 19.4927 432.34C19.9077 432.722 20.4639 432.913 21.1611 432.913C21.9027 432.913 22.4699 432.719 22.8628 432.332C23.2557 431.944 23.4521 431.388 23.4521 430.663C23.4521 429.96 23.2363 429.421 22.8047 429.044C22.373 428.668 21.7505 428.474 20.937 428.463H19.7832V427.21ZM27.2041 433.195C27.2041 432.929 27.2816 432.708 27.4365 432.531C27.597 432.354 27.835 432.265 28.1504 432.265C28.4658 432.265 28.7038 432.354 28.8643 432.531C29.0303 432.708 29.1133 432.929 29.1133 433.195C29.1133 433.449 29.0303 433.662 28.8643 433.834C28.7038 434.006 28.4658 434.091 28.1504 434.091C27.835 434.091 27.597 434.006 27.4365 433.834C27.2816 433.662 27.2041 433.449 27.2041 433.195ZM27.2124 425.865C27.2124 425.6 27.2899 425.378 27.4448 425.201C27.6053 425.024 27.8433 424.936 28.1587 424.936C28.4741 424.936 28.7121 425.024 28.8726 425.201C29.0386 425.378 29.1216 425.6 29.1216 425.865C29.1216 426.12 29.0386 426.333 28.8726 426.504C28.7121 426.676 28.4741 426.762 28.1587 426.762C27.8433 426.762 27.6053 426.676 27.4448 426.504C27.2899 426.333 27.2124 426.12 27.2124 425.865ZM38.792 428.845C38.792 430.644 38.4849 431.98 37.8706 432.854C37.2563 433.729 36.2962 434.166 34.9902 434.166C33.7008 434.166 32.7463 433.74 32.1265 432.888C31.5067 432.03 31.1857 430.752 31.1636 429.053V427.002C31.1636 425.226 31.4707 423.906 32.085 423.043C32.6992 422.18 33.6621 421.748 34.9736 421.748C36.2741 421.748 37.2314 422.166 37.8457 423.001C38.46 423.832 38.7754 425.115 38.792 426.853V428.845ZM37.2563 426.745C37.2563 425.445 37.0737 424.498 36.7085 423.906C36.3433 423.309 35.765 423.01 34.9736 423.01C34.1878 423.01 33.6151 423.306 33.2554 423.898C32.8957 424.49 32.7103 425.4 32.6992 426.629V429.086C32.6992 430.392 32.8874 431.358 33.2637 431.983C33.6455 432.603 34.221 432.913 34.9902 432.913C35.7484 432.913 36.3101 432.619 36.6753 432.033C37.0461 431.446 37.2397 430.522 37.2563 429.26V426.745ZM48.3379 428.845C48.3379 430.644 48.0308 431.98 47.4165 432.854C46.8022 433.729 45.8421 434.166 44.5361 434.166C43.2467 434.166 42.2922 433.74 41.6724 432.888C41.0526 432.03 40.7316 430.752 40.7095 429.053V427.002C40.7095 425.226 41.0166 423.906 41.6309 423.043C42.2451 422.18 43.208 421.748 44.5195 421.748C45.82 421.748 46.7773 422.166 47.3916 423.001C48.0059 423.832 48.3213 425.115 48.3379 426.853V428.845ZM46.8022 426.745C46.8022 425.445 46.6196 424.498 46.2544 423.906C45.8892 423.309 45.3109 423.01 44.5195 423.01C43.7337 423.01 43.161 423.306 42.8013 423.898C42.4416 424.49 42.2562 425.4 42.2451 426.629V429.086C42.2451 430.392 42.4333 431.358 42.8096 431.983C43.1914 432.603 43.7669 432.913 44.5361 432.913C45.2943 432.913 45.856 432.619 46.2212 432.033C46.592 431.446 46.7856 430.522 46.8022 429.26V426.745Z" fill="black"/>
<path d="M13.0513 653H11.5073V642.765L8.41113 643.902V642.508L12.8105 640.856H13.0513V653ZM23.5767 640.906V642.209H23.2944C22.0991 642.231 21.1473 642.585 20.439 643.271C19.7306 643.958 19.3211 644.923 19.2104 646.168C19.8468 645.438 20.7157 645.073 21.8169 645.073C22.8683 645.073 23.7067 645.444 24.332 646.185C24.9629 646.927 25.2783 647.884 25.2783 649.057C25.2783 650.302 24.938 651.298 24.2573 652.045C23.5822 652.792 22.6746 653.166 21.5347 653.166C20.3781 653.166 19.4401 652.723 18.7207 651.838C18.0013 650.947 17.6416 649.801 17.6416 648.401V647.812C17.6416 645.587 18.1147 643.889 19.061 642.715C20.0129 641.537 21.4268 640.933 23.3027 640.906H23.5767ZM21.5596 646.351C21.0339 646.351 20.5496 646.509 20.1069 646.824C19.6642 647.14 19.3571 647.535 19.1855 648.011V648.576C19.1855 649.572 19.4097 650.374 19.8579 650.983C20.3062 651.592 20.8651 651.896 21.5347 651.896C22.2264 651.896 22.7687 651.641 23.1616 651.132C23.5601 650.623 23.7593 649.956 23.7593 649.132C23.7593 648.302 23.5573 647.632 23.1533 647.123C22.7549 646.608 22.2236 646.351 21.5596 646.351ZM27.2041 652.195C27.2041 651.929 27.2816 651.708 27.4365 651.531C27.597 651.354 27.835 651.265 28.1504 651.265C28.4658 651.265 28.7038 651.354 28.8643 651.531C29.0303 651.708 29.1133 651.929 29.1133 652.195C29.1133 652.449 29.0303 652.662 28.8643 652.834C28.7038 653.006 28.4658 653.091 28.1504 653.091C27.835 653.091 27.597 653.006 27.4365 652.834C27.2816 652.662 27.2041 652.449 27.2041 652.195ZM27.2124 644.865C27.2124 644.6 27.2899 644.378 27.4448 644.201C27.6053 644.024 27.8433 643.936 28.1587 643.936C28.4741 643.936 28.7121 644.024 28.8726 644.201C29.0386 644.378 29.1216 644.6 29.1216 644.865C29.1216 645.12 29.0386 645.333 28.8726 645.504C28.7121 645.676 28.4741 645.762 28.1587 645.762C27.8433 645.762 27.6053 645.676 27.4448 645.504C27.2899 645.333 27.2124 645.12 27.2124 644.865ZM38.792 647.845C38.792 649.644 38.4849 650.98 37.8706 651.854C37.2563 652.729 36.2962 653.166 34.9902 653.166C33.7008 653.166 32.7463 652.74 32.1265 651.888C31.5067 651.03 31.1857 649.752 31.1636 648.053V646.002C31.1636 644.226 31.4707 642.906 32.085 642.043C32.6992 641.18 33.6621 640.748 34.9736 640.748C36.2741 640.748 37.2314 641.166 37.8457 642.001C38.46 642.832 38.7754 644.115 38.792 645.853V647.845ZM37.2563 645.745C37.2563 644.445 37.0737 643.498 36.7085 642.906C36.3433 642.309 35.765 642.01 34.9736 642.01C34.1878 642.01 33.6151 642.306 33.2554 642.898C32.8957 643.49 32.7103 644.4 32.6992 645.629V648.086C32.6992 649.392 32.8874 650.358 33.2637 650.983C33.6455 651.603 34.221 651.913 34.9902 651.913C35.7484 651.913 36.3101 651.619 36.6753 651.033C37.0461 650.446 37.2397 649.522 37.2563 648.26V645.745ZM48.3379 647.845C48.3379 649.644 48.0308 650.98 47.4165 651.854C46.8022 652.729 45.8421 653.166 44.5361 653.166C43.2467 653.166 42.2922 652.74 41.6724 651.888C41.0526 651.03 40.7316 649.752 40.7095 648.053V646.002C40.7095 644.226 41.0166 642.906 41.6309 642.043C42.2451 641.18 43.208 640.748 44.5195 640.748C45.82 640.748 46.7773 641.166 47.3916 642.001C48.0059 642.832 48.3213 644.115 48.3379 645.853V647.845ZM46.8022 645.745C46.8022 644.445 46.6196 643.498 46.2544 642.906C45.8892 642.309 45.3109 642.01 44.5195 642.01C43.7337 642.01 43.161 642.306 42.8013 642.898C42.4416 643.49 42.2562 644.4 42.2451 645.629V648.086C42.2451 649.392 42.4333 650.358 42.8096 650.983C43.1914 651.603 43.7669 651.913 44.5361 651.913C45.2943 651.913 45.856 651.619 46.2212 651.033C46.592 650.446 46.7856 649.522 46.8022 648.26V645.745Z" fill="black"/>
<path d="M13.0513 724H11.5073V713.765L8.41113 714.902V713.508L12.8105 711.856H13.0513V724ZM25.353 712.777L20.3477 724H18.7373L23.7261 713.176H17.1851V711.914H25.353V712.777ZM27.2041 723.195C27.2041 722.929 27.2816 722.708 27.4365 722.531C27.597 722.354 27.835 722.265 28.1504 722.265C28.4658 722.265 28.7038 722.354 28.8643 722.531C29.0303 722.708 29.1133 722.929 29.1133 723.195C29.1133 723.449 29.0303 723.662 28.8643 723.834C28.7038 724.006 28.4658 724.091 28.1504 724.091C27.835 724.091 27.597 724.006 27.4365 723.834C27.2816 723.662 27.2041 723.449 27.2041 723.195ZM27.2124 715.865C27.2124 715.6 27.2899 715.378 27.4448 715.201C27.6053 715.024 27.8433 714.936 28.1587 714.936C28.4741 714.936 28.7121 715.024 28.8726 715.201C29.0386 715.378 29.1216 715.6 29.1216 715.865C29.1216 716.12 29.0386 716.333 28.8726 716.504C28.7121 716.676 28.4741 716.762 28.1587 716.762C27.8433 716.762 27.6053 716.676 27.4448 716.504C27.2899 716.333 27.2124 716.12 27.2124 715.865ZM38.792 718.845C38.792 720.644 38.4849 721.98 37.8706 722.854C37.2563 723.729 36.2962 724.166 34.9902 724.166C33.7008 724.166 32.7463 723.74 32.1265 722.888C31.5067 722.03 31.1857 720.752 31.1636 719.053V717.002C31.1636 715.226 31.4707 713.906 32.085 713.043C32.6992 712.18 33.6621 711.748 34.9736 711.748C36.2741 711.748 37.2314 712.166 37.8457 713.001C38.46 713.832 38.7754 715.115 38.792 716.853V718.845ZM37.2563 716.745C37.2563 715.445 37.0737 714.498 36.7085 713.906C36.3433 713.309 35.765 713.01 34.9736 713.01C34.1878 713.01 33.6151 713.306 33.2554 713.898C32.8957 714.49 32.7103 715.4 32.6992 716.629V719.086C32.6992 720.392 32.8874 721.358 33.2637 721.983C33.6455 722.603 34.221 722.913 34.9902 722.913C35.7484 722.913 36.3101 722.619 36.6753 722.033C37.0461 721.446 37.2397 720.522 37.2563 719.26V716.745ZM48.3379 718.845C48.3379 720.644 48.0308 721.98 47.4165 722.854C46.8022 723.729 45.8421 724.166 44.5361 724.166C43.2467 724.166 42.2922 723.74 41.6724 722.888C41.0526 722.03 40.7316 720.752 40.7095 719.053V717.002C40.7095 715.226 41.0166 713.906 41.6309 713.043C42.2451 712.18 43.208 711.748 44.5195 711.748C45.82 711.748 46.7773 712.166 47.3916 713.001C48.0059 713.832 48.3213 715.115 48.3379 716.853V718.845ZM46.8022 716.745C46.8022 715.445 46.6196 714.498 46.2544 713.906C45.8892 713.309 45.3109 713.01 44.5195 713.01C43.7337 713.01 43.161 713.306 42.8013 713.898C42.4416 714.49 42.2562 715.4 42.2451 716.629V719.086C42.2451 720.392 42.4333 721.358 42.8096 721.983C43.1914 722.603 43.7669 722.913 44.5361 722.913C45.2943 722.913 45.856 722.619 46.2212 722.033C46.592 721.446 46.7856 720.522 46.8022 719.26V716.745Z" fill="black"/>
<path d="M13.0513 798H11.5073V787.765L8.41113 788.902V787.508L12.8105 785.856H13.0513V798ZM24.8799 789.068C24.8799 789.672 24.7194 790.208 24.3984 790.679C24.083 791.149 23.6541 791.517 23.1118 791.783C23.7427 792.054 24.2407 792.45 24.606 792.97C24.9767 793.49 25.1621 794.079 25.1621 794.738C25.1621 795.784 24.8079 796.617 24.0996 797.236C23.3968 797.856 22.4699 798.166 21.3188 798.166C20.1567 798.166 19.2243 797.856 18.5215 797.236C17.8242 796.611 17.4756 795.778 17.4756 794.738C17.4756 794.085 17.6527 793.495 18.0068 792.97C18.3665 792.444 18.8618 792.046 19.4927 791.774C18.9559 791.509 18.5326 791.141 18.2227 790.67C17.9128 790.2 17.7578 789.666 17.7578 789.068C17.7578 788.05 18.0843 787.242 18.7373 786.645C19.3903 786.047 20.2508 785.748 21.3188 785.748C22.3813 785.748 23.2391 786.047 23.8921 786.645C24.5506 787.242 24.8799 788.05 24.8799 789.068ZM23.6265 794.705C23.6265 794.029 23.4106 793.479 22.979 793.053C22.5529 792.627 21.994 792.414 21.3022 792.414C20.6105 792.414 20.0544 792.624 19.6338 793.044C19.2188 793.465 19.0112 794.018 19.0112 794.705C19.0112 795.391 19.2132 795.93 19.6172 796.323C20.0267 796.716 20.5939 796.913 21.3188 796.913C22.0382 796.913 22.6027 796.716 23.0122 796.323C23.4217 795.925 23.6265 795.385 23.6265 794.705ZM21.3188 787.01C20.7157 787.01 20.2259 787.198 19.8496 787.574C19.4788 787.945 19.2935 788.451 19.2935 789.093C19.2935 789.708 19.4761 790.206 19.8413 790.587C20.2121 790.964 20.7046 791.152 21.3188 791.152C21.9331 791.152 22.4229 790.964 22.7881 790.587C23.1589 790.206 23.3442 789.708 23.3442 789.093C23.3442 788.479 23.1533 787.978 22.7715 787.591C22.3896 787.203 21.9054 787.01 21.3188 787.01ZM27.2041 797.195C27.2041 796.929 27.2816 796.708 27.4365 796.531C27.597 796.354 27.835 796.265 28.1504 796.265C28.4658 796.265 28.7038 796.354 28.8643 796.531C29.0303 796.708 29.1133 796.929 29.1133 797.195C29.1133 797.449 29.0303 797.662 28.8643 797.834C28.7038 798.006 28.4658 798.091 28.1504 798.091C27.835 798.091 27.597 798.006 27.4365 797.834C27.2816 797.662 27.2041 797.449 27.2041 797.195ZM27.2124 789.865C27.2124 789.6 27.2899 789.378 27.4448 789.201C27.6053 789.024 27.8433 788.936 28.1587 788.936C28.4741 788.936 28.7121 789.024 28.8726 789.201C29.0386 789.378 29.1216 789.6 29.1216 789.865C29.1216 790.12 29.0386 790.333 28.8726 790.504C28.7121 790.676 28.4741 790.762 28.1587 790.762C27.8433 790.762 27.6053 790.676 27.4448 790.504C27.2899 790.333 27.2124 790.12 27.2124 789.865ZM38.792 792.845C38.792 794.644 38.4849 795.98 37.8706 796.854C37.2563 797.729 36.2962 798.166 34.9902 798.166C33.7008 798.166 32.7463 797.74 32.1265 796.888C31.5067 796.03 31.1857 794.752 31.1636 793.053V791.002C31.1636 789.226 31.4707 787.906 32.085 787.043C32.6992 786.18 33.6621 785.748 34.9736 785.748C36.2741 785.748 37.2314 786.166 37.8457 787.001C38.46 787.832 38.7754 789.115 38.792 790.853V792.845ZM37.2563 790.745C37.2563 789.445 37.0737 788.498 36.7085 787.906C36.3433 787.309 35.765 787.01 34.9736 787.01C34.1878 787.01 33.6151 787.306 33.2554 787.898C32.8957 788.49 32.7103 789.4 32.6992 790.629V793.086C32.6992 794.392 32.8874 795.358 33.2637 795.983C33.6455 796.603 34.221 796.913 34.9902 796.913C35.7484 796.913 36.3101 796.619 36.6753 796.033C37.0461 795.446 37.2397 794.522 37.2563 793.26V790.745ZM48.3379 792.845C48.3379 794.644 48.0308 795.98 47.4165 796.854C46.8022 797.729 45.8421 798.166 44.5361 798.166C43.2467 798.166 42.2922 797.74 41.6724 796.888C41.0526 796.03 40.7316 794.752 40.7095 793.053V791.002C40.7095 789.226 41.0166 787.906 41.6309 787.043C42.2451 786.18 43.208 785.748 44.5195 785.748C45.82 785.748 46.7773 786.166 47.3916 787.001C48.0059 787.832 48.3213 789.115 48.3379 790.853V792.845ZM46.8022 790.745C46.8022 789.445 46.6196 788.498 46.2544 787.906C45.8892 787.309 45.3109 787.01 44.5195 787.01C43.7337 787.01 43.161 787.306 42.8013 787.898C42.4416 788.49 42.2562 789.4 42.2451 790.629V793.086C42.2451 794.392 42.4333 795.358 42.8096 795.983C43.1914 796.603 43.7669 796.913 44.5361 796.913C45.2943 796.913 45.856 796.619 46.2212 796.033C46.592 795.446 46.7856 794.522 46.8022 793.26V790.745Z" fill="black"/>
<path d="M34.0527 175.875C33.8639 176.1 33.6377 176.28 33.374 176.417C33.1136 176.554 32.8271 176.622 32.5146 176.622C32.1045 176.622 31.7464 176.521 31.4404 176.319C31.1377 176.118 30.9033 175.834 30.7373 175.47C30.5713 175.102 30.4883 174.697 30.4883 174.254C30.4883 173.779 30.5778 173.351 30.7568 172.97C30.9391 172.589 31.1963 172.298 31.5283 172.096C31.8604 171.894 32.2477 171.793 32.6904 171.793C33.3936 171.793 33.9469 172.057 34.3506 172.584C34.7575 173.108 34.9609 173.824 34.9609 174.732V174.996C34.9609 176.38 34.6875 177.39 34.1406 178.028C33.5938 178.663 32.7686 178.989 31.665 179.005H31.4893V178.243H31.6797C32.4251 178.23 32.998 178.036 33.3984 177.662C33.7988 177.285 34.0169 176.689 34.0527 175.875ZM32.6611 175.875C32.9639 175.875 33.2422 175.782 33.4961 175.597C33.7533 175.411 33.9404 175.182 34.0576 174.908V174.547C34.0576 173.954 33.929 173.473 33.6719 173.102C33.4147 172.73 33.0892 172.545 32.6953 172.545C32.2982 172.545 31.9792 172.698 31.7383 173.004C31.4974 173.307 31.377 173.707 31.377 174.205C31.377 174.69 31.4925 175.09 31.7236 175.406C31.958 175.719 32.2705 175.875 32.6611 175.875ZM36.2695 178.526C36.2695 178.37 36.3151 178.24 36.4062 178.136C36.5007 178.032 36.6406 177.979 36.8262 177.979C37.0117 177.979 37.1517 178.032 37.2461 178.136C37.3438 178.24 37.3926 178.37 37.3926 178.526C37.3926 178.676 37.3438 178.801 37.2461 178.902C37.1517 179.003 37.0117 179.054 36.8262 179.054C36.6406 179.054 36.5007 179.003 36.4062 178.902C36.3151 178.801 36.2695 178.676 36.2695 178.526ZM36.2744 174.215C36.2744 174.059 36.32 173.928 36.4111 173.824C36.5055 173.72 36.6455 173.668 36.8311 173.668C37.0166 173.668 37.1566 173.72 37.251 173.824C37.3486 173.928 37.3975 174.059 37.3975 174.215C37.3975 174.365 37.3486 174.49 37.251 174.591C37.1566 174.692 37.0166 174.742 36.8311 174.742C36.6455 174.742 36.5055 174.692 36.4111 174.591C36.32 174.49 36.2744 174.365 36.2744 174.215ZM39.9414 175.006H40.6201C41.0465 174.999 41.3818 174.887 41.626 174.669C41.8701 174.451 41.9922 174.156 41.9922 173.785C41.9922 172.952 41.5771 172.535 40.7471 172.535C40.3564 172.535 40.0439 172.647 39.8096 172.872C39.5785 173.093 39.4629 173.388 39.4629 173.756H38.5596C38.5596 173.193 38.7646 172.726 39.1748 172.354C39.5882 171.98 40.1123 171.793 40.7471 171.793C41.4176 171.793 41.9434 171.97 42.3242 172.325C42.7051 172.68 42.8955 173.173 42.8955 173.805C42.8955 174.114 42.7946 174.413 42.5928 174.703C42.3942 174.993 42.1224 175.209 41.7773 175.353C42.168 175.476 42.4691 175.681 42.6807 175.968C42.8955 176.254 43.0029 176.604 43.0029 177.018C43.0029 177.656 42.7946 178.162 42.3779 178.536C41.9613 178.91 41.4193 179.098 40.752 179.098C40.0846 179.098 39.541 178.917 39.1211 178.556C38.7044 178.194 38.4961 177.717 38.4961 177.125H39.4043C39.4043 177.499 39.5264 177.799 39.7705 178.023C40.0146 178.248 40.3418 178.36 40.752 178.36C41.1882 178.36 41.5218 178.246 41.7529 178.019C41.984 177.791 42.0996 177.464 42.0996 177.037C42.0996 176.624 41.9727 176.306 41.7188 176.085C41.4648 175.864 41.0986 175.75 40.6201 175.743H39.9414V175.006ZM48.7012 175.968C48.7012 177.026 48.5205 177.812 48.1592 178.326C47.7979 178.84 47.2331 179.098 46.4648 179.098C45.7064 179.098 45.1449 178.847 44.7803 178.346C44.4157 177.841 44.2269 177.089 44.2139 176.09V174.884C44.2139 173.839 44.3945 173.062 44.7559 172.555C45.1172 172.047 45.6836 171.793 46.4551 171.793C47.2201 171.793 47.7832 172.039 48.1445 172.53C48.5059 173.019 48.6914 173.774 48.7012 174.796V175.968ZM47.7979 174.732C47.7979 173.967 47.6904 173.411 47.4756 173.062C47.2607 172.711 46.9206 172.535 46.4551 172.535C45.9928 172.535 45.6559 172.709 45.4443 173.058C45.2327 173.406 45.1237 173.941 45.1172 174.664V176.109C45.1172 176.878 45.2279 177.446 45.4492 177.813C45.6738 178.178 46.0124 178.36 46.4648 178.36C46.9108 178.36 47.2412 178.188 47.4561 177.843C47.6742 177.498 47.7881 176.954 47.7979 176.212V174.732Z" fill="black"/>
<path d="M28.5596 398H27.6514V391.979L25.8301 392.648V391.828L28.418 390.856H28.5596V398ZM35.8643 398H31.2061V397.351L33.667 394.616C34.0316 394.203 34.2822 393.868 34.4189 393.61C34.5589 393.35 34.6289 393.081 34.6289 392.805C34.6289 392.434 34.5166 392.129 34.292 391.892C34.0674 391.654 33.7679 391.535 33.3936 391.535C32.9443 391.535 32.5944 391.664 32.3438 391.921C32.0964 392.175 31.9727 392.53 31.9727 392.985H31.0693C31.0693 392.331 31.2793 391.802 31.6992 391.398C32.1224 390.995 32.6872 390.793 33.3936 390.793C34.0544 390.793 34.5768 390.967 34.9609 391.315C35.3451 391.66 35.5371 392.121 35.5371 392.697C35.5371 393.397 35.0911 394.23 34.1992 395.197L32.2949 397.263H35.8643V398ZM36.8848 397.526C36.8848 397.37 36.9303 397.24 37.0215 397.136C37.1159 397.032 37.2559 396.979 37.4414 396.979C37.627 396.979 37.7669 397.032 37.8613 397.136C37.959 397.24 38.0078 397.37 38.0078 397.526C38.0078 397.676 37.959 397.801 37.8613 397.902C37.7669 398.003 37.627 398.054 37.4414 398.054C37.2559 398.054 37.1159 398.003 37.0215 397.902C36.9303 397.801 36.8848 397.676 36.8848 397.526ZM36.8896 393.215C36.8896 393.059 36.9352 392.928 37.0264 392.824C37.1208 392.72 37.2607 392.668 37.4463 392.668C37.6318 392.668 37.7718 392.72 37.8662 392.824C37.9639 392.928 38.0127 393.059 38.0127 393.215C38.0127 393.365 37.9639 393.49 37.8662 393.591C37.7718 393.692 37.6318 393.742 37.4463 393.742C37.2607 393.742 37.1208 393.692 37.0264 393.591C36.9352 393.49 36.8896 393.365 36.8896 393.215ZM40.5566 394.006H41.2354C41.6618 393.999 41.9971 393.887 42.2412 393.669C42.4854 393.451 42.6074 393.156 42.6074 392.785C42.6074 391.952 42.1924 391.535 41.3623 391.535C40.9717 391.535 40.6592 391.647 40.4248 391.872C40.1937 392.093 40.0781 392.388 40.0781 392.756H39.1748C39.1748 392.193 39.3799 391.726 39.79 391.354C40.2035 390.98 40.7275 390.793 41.3623 390.793C42.0329 390.793 42.5586 390.97 42.9395 391.325C43.3203 391.68 43.5107 392.173 43.5107 392.805C43.5107 393.114 43.4098 393.413 43.208 393.703C43.0094 393.993 42.7376 394.209 42.3926 394.353C42.7832 394.476 43.0843 394.681 43.2959 394.968C43.5107 395.254 43.6182 395.604 43.6182 396.018C43.6182 396.656 43.4098 397.162 42.9932 397.536C42.5765 397.91 42.0345 398.098 41.3672 398.098C40.6999 398.098 40.1562 397.917 39.7363 397.556C39.3197 397.194 39.1113 396.717 39.1113 396.125H40.0195C40.0195 396.499 40.1416 396.799 40.3857 397.023C40.6299 397.248 40.957 397.36 41.3672 397.36C41.8034 397.36 42.137 397.246 42.3682 397.019C42.5993 396.791 42.7148 396.464 42.7148 396.037C42.7148 395.624 42.5879 395.306 42.334 395.085C42.0801 394.864 41.7139 394.75 41.2354 394.743H40.5566V394.006ZM49.3164 394.968C49.3164 396.026 49.1357 396.812 48.7744 397.326C48.4131 397.84 47.8483 398.098 47.0801 398.098C46.3216 398.098 45.7601 397.847 45.3955 397.346C45.0309 396.841 44.8421 396.089 44.8291 395.09V393.884C44.8291 392.839 45.0098 392.062 45.3711 391.555C45.7324 391.047 46.2988 390.793 47.0703 390.793C47.8353 390.793 48.3984 391.039 48.7598 391.53C49.1211 392.019 49.3066 392.774 49.3164 393.796V394.968ZM48.4131 393.732C48.4131 392.967 48.3057 392.411 48.0908 392.062C47.876 391.711 47.5358 391.535 47.0703 391.535C46.6081 391.535 46.2712 391.709 46.0596 392.058C45.848 392.406 45.7389 392.941 45.7324 393.664V395.109C45.7324 395.878 45.8431 396.446 46.0645 396.813C46.2891 397.178 46.6276 397.36 47.0801 397.36C47.526 397.36 47.8564 397.188 48.0713 396.843C48.2894 396.498 48.4033 395.954 48.4131 395.212V393.732Z" fill="black"/>
<path d="M28.5596 616H27.6514V609.979L25.8301 610.648V609.828L28.418 608.856H28.5596V616ZM31.6211 612.436L31.9824 608.891H35.625V609.726H32.749L32.5342 611.664C32.8825 611.459 33.278 611.356 33.7207 611.356C34.3685 611.356 34.8828 611.571 35.2637 612.001C35.6445 612.427 35.835 613.005 35.835 613.734C35.835 614.467 35.6364 615.045 35.2393 615.468C34.8454 615.888 34.2936 616.098 33.584 616.098C32.9557 616.098 32.443 615.924 32.0459 615.575C31.6488 615.227 31.4225 614.745 31.3672 614.13H32.2217C32.277 614.537 32.4219 614.844 32.6562 615.053C32.8906 615.258 33.1999 615.36 33.584 615.36C34.0039 615.36 34.3327 615.217 34.5703 614.931C34.8112 614.644 34.9316 614.249 34.9316 613.744C34.9316 613.269 34.8014 612.888 34.541 612.602C34.2839 612.312 33.9404 612.167 33.5107 612.167C33.1169 612.167 32.8076 612.253 32.583 612.426L32.3438 612.621L31.6211 612.436ZM36.8848 615.526C36.8848 615.37 36.9303 615.24 37.0215 615.136C37.1159 615.032 37.2559 614.979 37.4414 614.979C37.627 614.979 37.7669 615.032 37.8613 615.136C37.959 615.24 38.0078 615.37 38.0078 615.526C38.0078 615.676 37.959 615.801 37.8613 615.902C37.7669 616.003 37.627 616.054 37.4414 616.054C37.2559 616.054 37.1159 616.003 37.0215 615.902C36.9303 615.801 36.8848 615.676 36.8848 615.526ZM36.8896 611.215C36.8896 611.059 36.9352 610.928 37.0264 610.824C37.1208 610.72 37.2607 610.668 37.4463 610.668C37.6318 610.668 37.7718 610.72 37.8662 610.824C37.9639 610.928 38.0127 611.059 38.0127 611.215C38.0127 611.365 37.9639 611.49 37.8662 611.591C37.7718 611.692 37.6318 611.742 37.4463 611.742C37.2607 611.742 37.1208 611.692 37.0264 611.591C36.9352 611.49 36.8896 611.365 36.8896 611.215ZM40.5566 612.006H41.2354C41.6618 611.999 41.9971 611.887 42.2412 611.669C42.4854 611.451 42.6074 611.156 42.6074 610.785C42.6074 609.952 42.1924 609.535 41.3623 609.535C40.9717 609.535 40.6592 609.647 40.4248 609.872C40.1937 610.093 40.0781 610.388 40.0781 610.756H39.1748C39.1748 610.193 39.3799 609.726 39.79 609.354C40.2035 608.98 40.7275 608.793 41.3623 608.793C42.0329 608.793 42.5586 608.97 42.9395 609.325C43.3203 609.68 43.5107 610.173 43.5107 610.805C43.5107 611.114 43.4098 611.413 43.208 611.703C43.0094 611.993 42.7376 612.209 42.3926 612.353C42.7832 612.476 43.0843 612.681 43.2959 612.968C43.5107 613.254 43.6182 613.604 43.6182 614.018C43.6182 614.656 43.4098 615.162 42.9932 615.536C42.5765 615.91 42.0345 616.098 41.3672 616.098C40.6999 616.098 40.1562 615.917 39.7363 615.556C39.3197 615.194 39.1113 614.717 39.1113 614.125H40.0195C40.0195 614.499 40.1416 614.799 40.3857 615.023C40.6299 615.248 40.957 615.36 41.3672 615.36C41.8034 615.36 42.137 615.246 42.3682 615.019C42.5993 614.791 42.7148 614.464 42.7148 614.037C42.7148 613.624 42.5879 613.306 42.334 613.085C42.0801 612.864 41.7139 612.75 41.2354 612.743H40.5566V612.006ZM49.3164 612.968C49.3164 614.026 49.1357 614.812 48.7744 615.326C48.4131 615.84 47.8483 616.098 47.0801 616.098C46.3216 616.098 45.7601 615.847 45.3955 615.346C45.0309 614.841 44.8421 614.089 44.8291 613.09V611.884C44.8291 610.839 45.0098 610.062 45.3711 609.555C45.7324 609.047 46.2988 608.793 47.0703 608.793C47.8353 608.793 48.3984 609.039 48.7598 609.53C49.1211 610.019 49.3066 610.774 49.3164 611.796V612.968ZM48.4131 611.732C48.4131 610.967 48.3057 610.411 48.0908 610.062C47.876 609.711 47.5358 609.535 47.0703 609.535C46.6081 609.535 46.2712 609.709 46.0596 610.058C45.848 610.406 45.7389 610.941 45.7324 611.664V613.109C45.7324 613.878 45.8431 614.446 46.0645 614.813C46.2891 615.178 46.6276 615.36 47.0801 615.36C47.526 615.36 47.8564 615.188 48.0713 614.843C48.2894 614.498 48.4033 613.954 48.4131 613.212V611.732Z" fill="black"/>
<path d="M34.9023 100.746C34.9023 101.101 34.8079 101.417 34.6191 101.693C34.4336 101.97 34.1813 102.187 33.8623 102.343C34.2334 102.502 34.5264 102.735 34.7412 103.041C34.9593 103.347 35.0684 103.694 35.0684 104.081C35.0684 104.696 34.86 105.186 34.4434 105.551C34.0299 105.915 33.4847 106.098 32.8076 106.098C32.124 106.098 31.5755 105.915 31.1621 105.551C30.752 105.183 30.5469 104.693 30.5469 104.081C30.5469 103.697 30.651 103.35 30.8594 103.041C31.071 102.732 31.3623 102.497 31.7334 102.338C31.4176 102.182 31.1686 101.965 30.9863 101.688C30.804 101.412 30.7129 101.098 30.7129 100.746C30.7129 100.147 30.9049 99.6719 31.2891 99.3203C31.6732 98.9688 32.1794 98.793 32.8076 98.793C33.4326 98.793 33.9372 98.9688 34.3213 99.3203C34.7087 99.6719 34.9023 100.147 34.9023 100.746ZM34.165 104.062C34.165 103.664 34.0381 103.34 33.7842 103.09C33.5335 102.839 33.2048 102.714 32.7979 102.714C32.391 102.714 32.0638 102.838 31.8164 103.085C31.5723 103.332 31.4502 103.658 31.4502 104.062C31.4502 104.465 31.569 104.783 31.8066 105.014C32.0475 105.245 32.3812 105.36 32.8076 105.36C33.2308 105.36 33.5628 105.245 33.8037 105.014C34.0446 104.779 34.165 104.462 34.165 104.062ZM32.8076 99.5352C32.4528 99.5352 32.1647 99.6458 31.9434 99.8672C31.7253 100.085 31.6162 100.383 31.6162 100.761C31.6162 101.122 31.7236 101.415 31.9385 101.64C32.1566 101.861 32.4463 101.972 32.8076 101.972C33.1689 101.972 33.457 101.861 33.6719 101.64C33.89 101.415 33.999 101.122 33.999 100.761C33.999 100.399 33.8867 100.105 33.6621 99.877C33.4375 99.6491 33.1527 99.5352 32.8076 99.5352ZM36.2695 105.526C36.2695 105.37 36.3151 105.24 36.4062 105.136C36.5007 105.032 36.6406 104.979 36.8262 104.979C37.0117 104.979 37.1517 105.032 37.2461 105.136C37.3438 105.24 37.3926 105.37 37.3926 105.526C37.3926 105.676 37.3438 105.801 37.2461 105.902C37.1517 106.003 37.0117 106.054 36.8262 106.054C36.6406 106.054 36.5007 106.003 36.4062 105.902C36.3151 105.801 36.2695 105.676 36.2695 105.526ZM36.2744 101.215C36.2744 101.059 36.32 100.928 36.4111 100.824C36.5055 100.72 36.6455 100.668 36.8311 100.668C37.0166 100.668 37.1566 100.72 37.251 100.824C37.3486 100.928 37.3975 101.059 37.3975 101.215C37.3975 101.365 37.3486 101.49 37.251 101.591C37.1566 101.692 37.0166 101.742 36.8311 101.742C36.6455 101.742 36.5055 101.692 36.4111 101.591C36.32 101.49 36.2744 101.365 36.2744 101.215ZM39.9414 102.006H40.6201C41.0465 101.999 41.3818 101.887 41.626 101.669C41.8701 101.451 41.9922 101.156 41.9922 100.785C41.9922 99.9518 41.5771 99.5352 40.7471 99.5352C40.3564 99.5352 40.0439 99.6475 39.8096 99.8721C39.5785 100.093 39.4629 100.388 39.4629 100.756H38.5596C38.5596 100.193 38.7646 99.7256 39.1748 99.3545C39.5882 98.9801 40.1123 98.793 40.7471 98.793C41.4176 98.793 41.9434 98.9704 42.3242 99.3252C42.7051 99.68 42.8955 100.173 42.8955 100.805C42.8955 101.114 42.7946 101.413 42.5928 101.703C42.3942 101.993 42.1224 102.209 41.7773 102.353C42.168 102.476 42.4691 102.681 42.6807 102.968C42.8955 103.254 43.0029 103.604 43.0029 104.018C43.0029 104.656 42.7946 105.162 42.3779 105.536C41.9613 105.91 41.4193 106.098 40.752 106.098C40.0846 106.098 39.541 105.917 39.1211 105.556C38.7044 105.194 38.4961 104.717 38.4961 104.125H39.4043C39.4043 104.499 39.5264 104.799 39.7705 105.023C40.0146 105.248 40.3418 105.36 40.752 105.36C41.1882 105.36 41.5218 105.246 41.7529 105.019C41.984 104.791 42.0996 104.464 42.0996 104.037C42.0996 103.624 41.9727 103.306 41.7188 103.085C41.4648 102.864 41.0986 102.75 40.6201 102.743H39.9414V102.006ZM48.7012 102.968C48.7012 104.026 48.5205 104.812 48.1592 105.326C47.7979 105.84 47.2331 106.098 46.4648 106.098C45.7064 106.098 45.1449 105.847 44.7803 105.346C44.4157 104.841 44.2269 104.089 44.2139 103.09V101.884C44.2139 100.839 44.3945 100.062 44.7559 99.5547C45.1172 99.0469 45.6836 98.793 46.4551 98.793C47.2201 98.793 47.7832 99.0387 48.1445 99.5303C48.5059 100.019 48.6914 100.774 48.7012 101.796V102.968ZM47.7979 101.732C47.7979 100.967 47.6904 100.411 47.4756 100.062C47.2607 99.7109 46.9206 99.5352 46.4551 99.5352C45.9928 99.5352 45.6559 99.7093 45.4443 100.058C45.2327 100.406 45.1237 100.941 45.1172 101.664V103.109C45.1172 103.878 45.2279 104.446 45.4492 104.813C45.6738 105.178 46.0124 105.36 46.4648 105.36C46.9108 105.36 47.2412 105.188 47.4561 104.843C47.6742 104.498 47.7881 103.954 47.7979 103.212V101.732Z" fill="black"/>
<path d="M35.1807 26.3984L32.2363 33H31.2891L34.2236 26.6328H30.376V25.8906H35.1807V26.3984ZM36.2695 32.5264C36.2695 32.3701 36.3151 32.2399 36.4062 32.1357C36.5007 32.0316 36.6406 31.9795 36.8262 31.9795C37.0117 31.9795 37.1517 32.0316 37.2461 32.1357C37.3438 32.2399 37.3926 32.3701 37.3926 32.5264C37.3926 32.6761 37.3438 32.8014 37.2461 32.9023C37.1517 33.0033 37.0117 33.0537 36.8262 33.0537C36.6406 33.0537 36.5007 33.0033 36.4062 32.9023C36.3151 32.8014 36.2695 32.6761 36.2695 32.5264ZM36.2744 28.2148C36.2744 28.0586 36.32 27.9284 36.4111 27.8242C36.5055 27.7201 36.6455 27.668 36.8311 27.668C37.0166 27.668 37.1566 27.7201 37.251 27.8242C37.3486 27.9284 37.3975 28.0586 37.3975 28.2148C37.3975 28.3646 37.3486 28.4899 37.251 28.5908C37.1566 28.6917 37.0166 28.7422 36.8311 28.7422C36.6455 28.7422 36.5055 28.6917 36.4111 28.5908C36.32 28.4899 36.2744 28.3646 36.2744 28.2148ZM39.9414 29.0059H40.6201C41.0465 28.9993 41.3818 28.887 41.626 28.6689C41.8701 28.4508 41.9922 28.1562 41.9922 27.7852C41.9922 26.9518 41.5771 26.5352 40.7471 26.5352C40.3564 26.5352 40.0439 26.6475 39.8096 26.8721C39.5785 27.0934 39.4629 27.388 39.4629 27.7559H38.5596C38.5596 27.1927 38.7646 26.7256 39.1748 26.3545C39.5882 25.9801 40.1123 25.793 40.7471 25.793C41.4176 25.793 41.9434 25.9704 42.3242 26.3252C42.7051 26.68 42.8955 27.1732 42.8955 27.8047C42.8955 28.1139 42.7946 28.4134 42.5928 28.7031C42.3942 28.9928 42.1224 29.2093 41.7773 29.3525C42.168 29.4762 42.4691 29.6813 42.6807 29.9678C42.8955 30.2542 43.0029 30.6042 43.0029 31.0176C43.0029 31.6556 42.7946 32.1618 42.3779 32.5361C41.9613 32.9105 41.4193 33.0977 40.752 33.0977C40.0846 33.0977 39.541 32.917 39.1211 32.5557C38.7044 32.1943 38.4961 31.7174 38.4961 31.125H39.4043C39.4043 31.4993 39.5264 31.7988 39.7705 32.0234C40.0146 32.248 40.3418 32.3604 40.752 32.3604C41.1882 32.3604 41.5218 32.2464 41.7529 32.0186C41.984 31.7907 42.0996 31.4635 42.0996 31.0371C42.0996 30.6237 41.9727 30.3063 41.7188 30.085C41.4648 29.8636 41.0986 29.7497 40.6201 29.7432H39.9414V29.0059ZM48.7012 29.9678C48.7012 31.0257 48.5205 31.8118 48.1592 32.3262C47.7979 32.8405 47.2331 33.0977 46.4648 33.0977C45.7064 33.0977 45.1449 32.847 44.7803 32.3457C44.4157 31.8411 44.2269 31.0892 44.2139 30.0898V28.8838C44.2139 27.8389 44.3945 27.0625 44.7559 26.5547C45.1172 26.0469 45.6836 25.793 46.4551 25.793C47.2201 25.793 47.7832 26.0387 48.1445 26.5303C48.5059 27.0186 48.6914 27.7738 48.7012 28.7959V29.9678ZM47.7979 28.7324C47.7979 27.9674 47.6904 27.4108 47.4756 27.0625C47.2607 26.7109 46.9206 26.5352 46.4551 26.5352C45.9928 26.5352 45.6559 26.7093 45.4443 27.0576C45.2327 27.4059 45.1237 27.9414 45.1172 28.6641V30.1094C45.1172 30.8776 45.2279 31.4456 45.4492 31.8135C45.6738 32.1781 46.0124 32.3604 46.4648 32.3604C46.9108 32.3604 47.2412 32.1878 47.4561 31.8428C47.6742 31.4977 47.7881 30.9541 47.7979 30.2119V28.7324Z" fill="black"/>
<path d="M28.5596 324H27.6514V317.979L25.8301 318.648V317.828L28.418 316.856H28.5596V324ZM34.1748 324H33.2666V317.979L31.4453 318.648V317.828L34.0332 316.856H34.1748V324ZM36.8848 323.526C36.8848 323.37 36.9303 323.24 37.0215 323.136C37.1159 323.032 37.2559 322.979 37.4414 322.979C37.627 322.979 37.7669 323.032 37.8613 323.136C37.959 323.24 38.0078 323.37 38.0078 323.526C38.0078 323.676 37.959 323.801 37.8613 323.902C37.7669 324.003 37.627 324.054 37.4414 324.054C37.2559 324.054 37.1159 324.003 37.0215 323.902C36.9303 323.801 36.8848 323.676 36.8848 323.526ZM36.8896 319.215C36.8896 319.059 36.9352 318.928 37.0264 318.824C37.1208 318.72 37.2607 318.668 37.4463 318.668C37.6318 318.668 37.7718 318.72 37.8662 318.824C37.9639 318.928 38.0127 319.059 38.0127 319.215C38.0127 319.365 37.9639 319.49 37.8662 319.591C37.7718 319.692 37.6318 319.742 37.4463 319.742C37.2607 319.742 37.1208 319.692 37.0264 319.591C36.9352 319.49 36.8896 319.365 36.8896 319.215ZM40.5566 320.006H41.2354C41.6618 319.999 41.9971 319.887 42.2412 319.669C42.4854 319.451 42.6074 319.156 42.6074 318.785C42.6074 317.952 42.1924 317.535 41.3623 317.535C40.9717 317.535 40.6592 317.647 40.4248 317.872C40.1937 318.093 40.0781 318.388 40.0781 318.756H39.1748C39.1748 318.193 39.3799 317.726 39.79 317.354C40.2035 316.98 40.7275 316.793 41.3623 316.793C42.0329 316.793 42.5586 316.97 42.9395 317.325C43.3203 317.68 43.5107 318.173 43.5107 318.805C43.5107 319.114 43.4098 319.413 43.208 319.703C43.0094 319.993 42.7376 320.209 42.3926 320.353C42.7832 320.476 43.0843 320.681 43.2959 320.968C43.5107 321.254 43.6182 321.604 43.6182 322.018C43.6182 322.656 43.4098 323.162 42.9932 323.536C42.5765 323.91 42.0345 324.098 41.3672 324.098C40.6999 324.098 40.1562 323.917 39.7363 323.556C39.3197 323.194 39.1113 322.717 39.1113 322.125H40.0195C40.0195 322.499 40.1416 322.799 40.3857 323.023C40.6299 323.248 40.957 323.36 41.3672 323.36C41.8034 323.36 42.137 323.246 42.3682 323.019C42.5993 322.791 42.7148 322.464 42.7148 322.037C42.7148 321.624 42.5879 321.306 42.334 321.085C42.0801 320.864 41.7139 320.75 41.2354 320.743H40.5566V320.006ZM49.3164 320.968C49.3164 322.026 49.1357 322.812 48.7744 323.326C48.4131 323.84 47.8483 324.098 47.0801 324.098C46.3216 324.098 45.7601 323.847 45.3955 323.346C45.0309 322.841 44.8421 322.089 44.8291 321.09V319.884C44.8291 318.839 45.0098 318.062 45.3711 317.555C45.7324 317.047 46.2988 316.793 47.0703 316.793C47.8353 316.793 48.3984 317.039 48.7598 317.53C49.1211 318.019 49.3066 318.774 49.3164 319.796V320.968ZM48.4131 319.732C48.4131 318.967 48.3057 318.411 48.0908 318.062C47.876 317.711 47.5358 317.535 47.0703 317.535C46.6081 317.535 46.2712 317.709 46.0596 318.058C45.848 318.406 45.7389 318.941 45.7324 319.664V321.109C45.7324 321.878 45.8431 322.446 46.0645 322.813C46.2891 323.178 46.6276 323.36 47.0801 323.36C47.526 323.36 47.8564 323.188 48.0713 322.843C48.2894 322.498 48.4033 321.954 48.4131 321.212V319.732Z" fill="black"/>
<path d="M28.5596 543H27.6514V536.979L25.8301 537.648V536.828L28.418 535.856H28.5596V543ZM35.0195 540.612H36.0059V541.35H35.0195V543H34.1113V541.35H30.874V540.817L34.0576 535.891H35.0195V540.612ZM31.8994 540.612H34.1113V537.126L34.0039 537.321L31.8994 540.612ZM36.8848 542.526C36.8848 542.37 36.9303 542.24 37.0215 542.136C37.1159 542.032 37.2559 541.979 37.4414 541.979C37.627 541.979 37.7669 542.032 37.8613 542.136C37.959 542.24 38.0078 542.37 38.0078 542.526C38.0078 542.676 37.959 542.801 37.8613 542.902C37.7669 543.003 37.627 543.054 37.4414 543.054C37.2559 543.054 37.1159 543.003 37.0215 542.902C36.9303 542.801 36.8848 542.676 36.8848 542.526ZM36.8896 538.215C36.8896 538.059 36.9352 537.928 37.0264 537.824C37.1208 537.72 37.2607 537.668 37.4463 537.668C37.6318 537.668 37.7718 537.72 37.8662 537.824C37.9639 537.928 38.0127 538.059 38.0127 538.215C38.0127 538.365 37.9639 538.49 37.8662 538.591C37.7718 538.692 37.6318 538.742 37.4463 538.742C37.2607 538.742 37.1208 538.692 37.0264 538.591C36.9352 538.49 36.8896 538.365 36.8896 538.215ZM40.5566 539.006H41.2354C41.6618 538.999 41.9971 538.887 42.2412 538.669C42.4854 538.451 42.6074 538.156 42.6074 537.785C42.6074 536.952 42.1924 536.535 41.3623 536.535C40.9717 536.535 40.6592 536.647 40.4248 536.872C40.1937 537.093 40.0781 537.388 40.0781 537.756H39.1748C39.1748 537.193 39.3799 536.726 39.79 536.354C40.2035 535.98 40.7275 535.793 41.3623 535.793C42.0329 535.793 42.5586 535.97 42.9395 536.325C43.3203 536.68 43.5107 537.173 43.5107 537.805C43.5107 538.114 43.4098 538.413 43.208 538.703C43.0094 538.993 42.7376 539.209 42.3926 539.353C42.7832 539.476 43.0843 539.681 43.2959 539.968C43.5107 540.254 43.6182 540.604 43.6182 541.018C43.6182 541.656 43.4098 542.162 42.9932 542.536C42.5765 542.91 42.0345 543.098 41.3672 543.098C40.6999 543.098 40.1562 542.917 39.7363 542.556C39.3197 542.194 39.1113 541.717 39.1113 541.125H40.0195C40.0195 541.499 40.1416 541.799 40.3857 542.023C40.6299 542.248 40.957 542.36 41.3672 542.36C41.8034 542.36 42.137 542.246 42.3682 542.019C42.5993 541.791 42.7148 541.464 42.7148 541.037C42.7148 540.624 42.5879 540.306 42.334 540.085C42.0801 539.864 41.7139 539.75 41.2354 539.743H40.5566V539.006ZM49.3164 539.968C49.3164 541.026 49.1357 541.812 48.7744 542.326C48.4131 542.84 47.8483 543.098 47.0801 543.098C46.3216 543.098 45.7601 542.847 45.3955 542.346C45.0309 541.841 44.8421 541.089 44.8291 540.09V538.884C44.8291 537.839 45.0098 537.062 45.3711 536.555C45.7324 536.047 46.2988 535.793 47.0703 535.793C47.8353 535.793 48.3984 536.039 48.7598 536.53C49.1211 537.019 49.3066 537.774 49.3164 538.796V539.968ZM48.4131 538.732C48.4131 537.967 48.3057 537.411 48.0908 537.062C47.876 536.711 47.5358 536.535 47.0703 536.535C46.6081 536.535 46.2712 536.709 46.0596 537.058C45.848 537.406 45.7389 537.941 45.7324 538.664V540.109C45.7324 540.878 45.8431 541.446 46.0645 541.813C46.2891 542.178 46.6276 542.36 47.0801 542.36C47.526 542.36 47.8564 542.188 48.0713 541.843C48.2894 541.498 48.4033 540.954 48.4131 540.212V538.732Z" fill="black"/>
<path d="M28.5596 252H27.6514V245.979L25.8301 246.648V245.828L28.418 244.856H28.5596V252ZM35.6641 248.968C35.6641 250.026 35.4834 250.812 35.1221 251.326C34.7607 251.84 34.196 252.098 33.4277 252.098C32.6693 252.098 32.1077 251.847 31.7432 251.346C31.3786 250.841 31.1898 250.089 31.1768 249.09V247.884C31.1768 246.839 31.3574 246.062 31.7188 245.555C32.0801 245.047 32.6465 244.793 33.418 244.793C34.1829 244.793 34.7461 245.039 35.1074 245.53C35.4688 246.019 35.6543 246.774 35.6641 247.796V248.968ZM34.7607 247.732C34.7607 246.967 34.6533 246.411 34.4385 246.062C34.2236 245.711 33.8835 245.535 33.418 245.535C32.9557 245.535 32.6188 245.709 32.4072 246.058C32.1956 246.406 32.0866 246.941 32.0801 247.664V249.109C32.0801 249.878 32.1908 250.446 32.4121 250.813C32.6367 251.178 32.9753 251.36 33.4277 251.36C33.8737 251.36 34.2041 251.188 34.4189 250.843C34.637 250.498 34.751 249.954 34.7607 249.212V247.732ZM36.8848 251.526C36.8848 251.37 36.9303 251.24 37.0215 251.136C37.1159 251.032 37.2559 250.979 37.4414 250.979C37.627 250.979 37.7669 251.032 37.8613 251.136C37.959 251.24 38.0078 251.37 38.0078 251.526C38.0078 251.676 37.959 251.801 37.8613 251.902C37.7669 252.003 37.627 252.054 37.4414 252.054C37.2559 252.054 37.1159 252.003 37.0215 251.902C36.9303 251.801 36.8848 251.676 36.8848 251.526ZM36.8896 247.215C36.8896 247.059 36.9352 246.928 37.0264 246.824C37.1208 246.72 37.2607 246.668 37.4463 246.668C37.6318 246.668 37.7718 246.72 37.8662 246.824C37.9639 246.928 38.0127 247.059 38.0127 247.215C38.0127 247.365 37.9639 247.49 37.8662 247.591C37.7718 247.692 37.6318 247.742 37.4463 247.742C37.2607 247.742 37.1208 247.692 37.0264 247.591C36.9352 247.49 36.8896 247.365 36.8896 247.215ZM40.5566 248.006H41.2354C41.6618 247.999 41.9971 247.887 42.2412 247.669C42.4854 247.451 42.6074 247.156 42.6074 246.785C42.6074 245.952 42.1924 245.535 41.3623 245.535C40.9717 245.535 40.6592 245.647 40.4248 245.872C40.1937 246.093 40.0781 246.388 40.0781 246.756H39.1748C39.1748 246.193 39.3799 245.726 39.79 245.354C40.2035 244.98 40.7275 244.793 41.3623 244.793C42.0329 244.793 42.5586 244.97 42.9395 245.325C43.3203 245.68 43.5107 246.173 43.5107 246.805C43.5107 247.114 43.4098 247.413 43.208 247.703C43.0094 247.993 42.7376 248.209 42.3926 248.353C42.7832 248.476 43.0843 248.681 43.2959 248.968C43.5107 249.254 43.6182 249.604 43.6182 250.018C43.6182 250.656 43.4098 251.162 42.9932 251.536C42.5765 251.91 42.0345 252.098 41.3672 252.098C40.6999 252.098 40.1562 251.917 39.7363 251.556C39.3197 251.194 39.1113 250.717 39.1113 250.125H40.0195C40.0195 250.499 40.1416 250.799 40.3857 251.023C40.6299 251.248 40.957 251.36 41.3672 251.36C41.8034 251.36 42.137 251.246 42.3682 251.019C42.5993 250.791 42.7148 250.464 42.7148 250.037C42.7148 249.624 42.5879 249.306 42.334 249.085C42.0801 248.864 41.7139 248.75 41.2354 248.743H40.5566V248.006ZM49.3164 248.968C49.3164 250.026 49.1357 250.812 48.7744 251.326C48.4131 251.84 47.8483 252.098 47.0801 252.098C46.3216 252.098 45.7601 251.847 45.3955 251.346C45.0309 250.841 44.8421 250.089 44.8291 249.09V247.884C44.8291 246.839 45.0098 246.062 45.3711 245.555C45.7324 245.047 46.2988 244.793 47.0703 244.793C47.8353 244.793 48.3984 245.039 48.7598 245.53C49.1211 246.019 49.3066 246.774 49.3164 247.796V248.968ZM48.4131 247.732C48.4131 246.967 48.3057 246.411 48.0908 246.062C47.876 245.711 47.5358 245.535 47.0703 245.535C46.6081 245.535 46.2712 245.709 46.0596 246.058C45.848 246.406 45.7389 246.941 45.7324 247.664V249.109C45.7324 249.878 45.8431 250.446 46.0645 250.813C46.2891 251.178 46.6276 251.36 47.0801 251.36C47.526 251.36 47.8564 251.188 48.0713 250.843C48.2894 250.498 48.4033 249.954 48.4131 249.212V247.732Z" fill="black"/>
<path d="M28.5596 471H27.6514V464.979L25.8301 465.648V464.828L28.418 463.856H28.5596V471ZM32.5195 467.006H33.1982C33.6247 466.999 33.96 466.887 34.2041 466.669C34.4482 466.451 34.5703 466.156 34.5703 465.785C34.5703 464.952 34.1553 464.535 33.3252 464.535C32.9346 464.535 32.6221 464.647 32.3877 464.872C32.1566 465.093 32.041 465.388 32.041 465.756H31.1377C31.1377 465.193 31.3428 464.726 31.7529 464.354C32.1663 463.98 32.6904 463.793 33.3252 463.793C33.9958 463.793 34.5215 463.97 34.9023 464.325C35.2832 464.68 35.4736 465.173 35.4736 465.805C35.4736 466.114 35.3727 466.413 35.1709 466.703C34.9723 466.993 34.7005 467.209 34.3555 467.353C34.7461 467.476 35.0472 467.681 35.2588 467.968C35.4736 468.254 35.5811 468.604 35.5811 469.018C35.5811 469.656 35.3727 470.162 34.9561 470.536C34.5394 470.91 33.9974 471.098 33.3301 471.098C32.6628 471.098 32.1191 470.917 31.6992 470.556C31.2826 470.194 31.0742 469.717 31.0742 469.125H31.9824C31.9824 469.499 32.1045 469.799 32.3486 470.023C32.5928 470.248 32.9199 470.36 33.3301 470.36C33.7663 470.36 34.0999 470.246 34.3311 470.019C34.5622 469.791 34.6777 469.464 34.6777 469.037C34.6777 468.624 34.5508 468.306 34.2969 468.085C34.043 467.864 33.6768 467.75 33.1982 467.743H32.5195V467.006ZM36.8848 470.526C36.8848 470.37 36.9303 470.24 37.0215 470.136C37.1159 470.032 37.2559 469.979 37.4414 469.979C37.627 469.979 37.7669 470.032 37.8613 470.136C37.959 470.24 38.0078 470.37 38.0078 470.526C38.0078 470.676 37.959 470.801 37.8613 470.902C37.7669 471.003 37.627 471.054 37.4414 471.054C37.2559 471.054 37.1159 471.003 37.0215 470.902C36.9303 470.801 36.8848 470.676 36.8848 470.526ZM36.8896 466.215C36.8896 466.059 36.9352 465.928 37.0264 465.824C37.1208 465.72 37.2607 465.668 37.4463 465.668C37.6318 465.668 37.7718 465.72 37.8662 465.824C37.9639 465.928 38.0127 466.059 38.0127 466.215C38.0127 466.365 37.9639 466.49 37.8662 466.591C37.7718 466.692 37.6318 466.742 37.4463 466.742C37.2607 466.742 37.1208 466.692 37.0264 466.591C36.9352 466.49 36.8896 466.365 36.8896 466.215ZM40.5566 467.006H41.2354C41.6618 466.999 41.9971 466.887 42.2412 466.669C42.4854 466.451 42.6074 466.156 42.6074 465.785C42.6074 464.952 42.1924 464.535 41.3623 464.535C40.9717 464.535 40.6592 464.647 40.4248 464.872C40.1937 465.093 40.0781 465.388 40.0781 465.756H39.1748C39.1748 465.193 39.3799 464.726 39.79 464.354C40.2035 463.98 40.7275 463.793 41.3623 463.793C42.0329 463.793 42.5586 463.97 42.9395 464.325C43.3203 464.68 43.5107 465.173 43.5107 465.805C43.5107 466.114 43.4098 466.413 43.208 466.703C43.0094 466.993 42.7376 467.209 42.3926 467.353C42.7832 467.476 43.0843 467.681 43.2959 467.968C43.5107 468.254 43.6182 468.604 43.6182 469.018C43.6182 469.656 43.4098 470.162 42.9932 470.536C42.5765 470.91 42.0345 471.098 41.3672 471.098C40.6999 471.098 40.1562 470.917 39.7363 470.556C39.3197 470.194 39.1113 469.717 39.1113 469.125H40.0195C40.0195 469.499 40.1416 469.799 40.3857 470.023C40.6299 470.248 40.957 470.36 41.3672 470.36C41.8034 470.36 42.137 470.246 42.3682 470.019C42.5993 469.791 42.7148 469.464 42.7148 469.037C42.7148 468.624 42.5879 468.306 42.334 468.085C42.0801 467.864 41.7139 467.75 41.2354 467.743H40.5566V467.006ZM49.3164 467.968C49.3164 469.026 49.1357 469.812 48.7744 470.326C48.4131 470.84 47.8483 471.098 47.0801 471.098C46.3216 471.098 45.7601 470.847 45.3955 470.346C45.0309 469.841 44.8421 469.089 44.8291 468.09V466.884C44.8291 465.839 45.0098 465.062 45.3711 464.555C45.7324 464.047 46.2988 463.793 47.0703 463.793C47.8353 463.793 48.3984 464.039 48.7598 464.53C49.1211 465.019 49.3066 465.774 49.3164 466.796V467.968ZM48.4131 466.732C48.4131 465.967 48.3057 465.411 48.0908 465.062C47.876 464.711 47.5358 464.535 47.0703 464.535C46.6081 464.535 46.2712 464.709 46.0596 465.058C45.848 465.406 45.7389 465.941 45.7324 466.664V468.109C45.7324 468.878 45.8431 469.446 46.0645 469.813C46.2891 470.178 46.6276 470.36 47.0801 470.36C47.526 470.36 47.8564 470.188 48.0713 469.843C48.2894 469.498 48.4033 468.954 48.4131 468.212V466.732Z" fill="black"/>
<path d="M28.5596 689H27.6514V682.979L25.8301 683.648V682.828L28.418 681.856H28.5596V689ZM34.751 681.886V682.652H34.585C33.8818 682.665 33.3219 682.874 32.9053 683.277C32.4886 683.681 32.2477 684.249 32.1826 684.981C32.557 684.552 33.068 684.337 33.7158 684.337C34.3343 684.337 34.8275 684.555 35.1953 684.991C35.5664 685.427 35.752 685.991 35.752 686.681C35.752 687.413 35.5518 687.999 35.1514 688.438C34.7542 688.878 34.2204 689.098 33.5498 689.098C32.8695 689.098 32.3177 688.837 31.8945 688.316C31.4714 687.792 31.2598 687.118 31.2598 686.295V685.948C31.2598 684.64 31.5381 683.64 32.0947 682.95C32.6546 682.257 33.4863 681.902 34.5898 681.886H34.751ZM33.5645 685.089C33.2552 685.089 32.9704 685.182 32.71 685.367C32.4495 685.553 32.2689 685.785 32.168 686.065V686.397C32.168 686.983 32.2998 687.455 32.5635 687.813C32.8271 688.172 33.1559 688.351 33.5498 688.351C33.9567 688.351 34.2757 688.201 34.5068 687.901C34.7412 687.602 34.8584 687.21 34.8584 686.725C34.8584 686.236 34.7396 685.842 34.502 685.543C34.2676 685.24 33.9551 685.089 33.5645 685.089ZM36.8848 688.526C36.8848 688.37 36.9303 688.24 37.0215 688.136C37.1159 688.032 37.2559 687.979 37.4414 687.979C37.627 687.979 37.7669 688.032 37.8613 688.136C37.959 688.24 38.0078 688.37 38.0078 688.526C38.0078 688.676 37.959 688.801 37.8613 688.902C37.7669 689.003 37.627 689.054 37.4414 689.054C37.2559 689.054 37.1159 689.003 37.0215 688.902C36.9303 688.801 36.8848 688.676 36.8848 688.526ZM36.8896 684.215C36.8896 684.059 36.9352 683.928 37.0264 683.824C37.1208 683.72 37.2607 683.668 37.4463 683.668C37.6318 683.668 37.7718 683.72 37.8662 683.824C37.9639 683.928 38.0127 684.059 38.0127 684.215C38.0127 684.365 37.9639 684.49 37.8662 684.591C37.7718 684.692 37.6318 684.742 37.4463 684.742C37.2607 684.742 37.1208 684.692 37.0264 684.591C36.9352 684.49 36.8896 684.365 36.8896 684.215ZM40.5566 685.006H41.2354C41.6618 684.999 41.9971 684.887 42.2412 684.669C42.4854 684.451 42.6074 684.156 42.6074 683.785C42.6074 682.952 42.1924 682.535 41.3623 682.535C40.9717 682.535 40.6592 682.647 40.4248 682.872C40.1937 683.093 40.0781 683.388 40.0781 683.756H39.1748C39.1748 683.193 39.3799 682.726 39.79 682.354C40.2035 681.98 40.7275 681.793 41.3623 681.793C42.0329 681.793 42.5586 681.97 42.9395 682.325C43.3203 682.68 43.5107 683.173 43.5107 683.805C43.5107 684.114 43.4098 684.413 43.208 684.703C43.0094 684.993 42.7376 685.209 42.3926 685.353C42.7832 685.476 43.0843 685.681 43.2959 685.968C43.5107 686.254 43.6182 686.604 43.6182 687.018C43.6182 687.656 43.4098 688.162 42.9932 688.536C42.5765 688.91 42.0345 689.098 41.3672 689.098C40.6999 689.098 40.1562 688.917 39.7363 688.556C39.3197 688.194 39.1113 687.717 39.1113 687.125H40.0195C40.0195 687.499 40.1416 687.799 40.3857 688.023C40.6299 688.248 40.957 688.36 41.3672 688.36C41.8034 688.36 42.137 688.246 42.3682 688.019C42.5993 687.791 42.7148 687.464 42.7148 687.037C42.7148 686.624 42.5879 686.306 42.334 686.085C42.0801 685.864 41.7139 685.75 41.2354 685.743H40.5566V685.006ZM49.3164 685.968C49.3164 687.026 49.1357 687.812 48.7744 688.326C48.4131 688.84 47.8483 689.098 47.0801 689.098C46.3216 689.098 45.7601 688.847 45.3955 688.346C45.0309 687.841 44.8421 687.089 44.8291 686.09V684.884C44.8291 683.839 45.0098 683.062 45.3711 682.555C45.7324 682.047 46.2988 681.793 47.0703 681.793C47.8353 681.793 48.3984 682.039 48.7598 682.53C49.1211 683.019 49.3066 683.774 49.3164 684.796V685.968ZM48.4131 684.732C48.4131 683.967 48.3057 683.411 48.0908 683.062C47.876 682.711 47.5358 682.535 47.0703 682.535C46.6081 682.535 46.2712 682.709 46.0596 683.058C45.848 683.406 45.7389 683.941 45.7324 684.664V686.109C45.7324 686.878 45.8431 687.446 46.0645 687.813C46.2891 688.178 46.6276 688.36 47.0801 688.36C47.526 688.36 47.8564 688.188 48.0713 687.843C48.2894 687.498 48.4033 686.954 48.4131 686.212V684.732Z" fill="black"/>
<path d="M28.5596 762H27.6514V755.979L25.8301 756.648V755.828L28.418 754.856H28.5596V762ZM35.7959 755.398L32.8516 762H31.9043L34.8389 755.633H30.9912V754.891H35.7959V755.398ZM36.8848 761.526C36.8848 761.37 36.9303 761.24 37.0215 761.136C37.1159 761.032 37.2559 760.979 37.4414 760.979C37.627 760.979 37.7669 761.032 37.8613 761.136C37.959 761.24 38.0078 761.37 38.0078 761.526C38.0078 761.676 37.959 761.801 37.8613 761.902C37.7669 762.003 37.627 762.054 37.4414 762.054C37.2559 762.054 37.1159 762.003 37.0215 761.902C36.9303 761.801 36.8848 761.676 36.8848 761.526ZM36.8896 757.215C36.8896 757.059 36.9352 756.928 37.0264 756.824C37.1208 756.72 37.2607 756.668 37.4463 756.668C37.6318 756.668 37.7718 756.72 37.8662 756.824C37.9639 756.928 38.0127 757.059 38.0127 757.215C38.0127 757.365 37.9639 757.49 37.8662 757.591C37.7718 757.692 37.6318 757.742 37.4463 757.742C37.2607 757.742 37.1208 757.692 37.0264 757.591C36.9352 757.49 36.8896 757.365 36.8896 757.215ZM40.5566 758.006H41.2354C41.6618 757.999 41.9971 757.887 42.2412 757.669C42.4854 757.451 42.6074 757.156 42.6074 756.785C42.6074 755.952 42.1924 755.535 41.3623 755.535C40.9717 755.535 40.6592 755.647 40.4248 755.872C40.1937 756.093 40.0781 756.388 40.0781 756.756H39.1748C39.1748 756.193 39.3799 755.726 39.79 755.354C40.2035 754.98 40.7275 754.793 41.3623 754.793C42.0329 754.793 42.5586 754.97 42.9395 755.325C43.3203 755.68 43.5107 756.173 43.5107 756.805C43.5107 757.114 43.4098 757.413 43.208 757.703C43.0094 757.993 42.7376 758.209 42.3926 758.353C42.7832 758.476 43.0843 758.681 43.2959 758.968C43.5107 759.254 43.6182 759.604 43.6182 760.018C43.6182 760.656 43.4098 761.162 42.9932 761.536C42.5765 761.91 42.0345 762.098 41.3672 762.098C40.6999 762.098 40.1562 761.917 39.7363 761.556C39.3197 761.194 39.1113 760.717 39.1113 760.125H40.0195C40.0195 760.499 40.1416 760.799 40.3857 761.023C40.6299 761.248 40.957 761.36 41.3672 761.36C41.8034 761.36 42.137 761.246 42.3682 761.019C42.5993 760.791 42.7148 760.464 42.7148 760.037C42.7148 759.624 42.5879 759.306 42.334 759.085C42.0801 758.864 41.7139 758.75 41.2354 758.743H40.5566V758.006ZM49.3164 758.968C49.3164 760.026 49.1357 760.812 48.7744 761.326C48.4131 761.84 47.8483 762.098 47.0801 762.098C46.3216 762.098 45.7601 761.847 45.3955 761.346C45.0309 760.841 44.8421 760.089 44.8291 759.09V757.884C44.8291 756.839 45.0098 756.062 45.3711 755.555C45.7324 755.047 46.2988 754.793 47.0703 754.793C47.8353 754.793 48.3984 755.039 48.7598 755.53C49.1211 756.019 49.3066 756.774 49.3164 757.796V758.968ZM48.4131 757.732C48.4131 756.967 48.3057 756.411 48.0908 756.062C47.876 755.711 47.5358 755.535 47.0703 755.535C46.6081 755.535 46.2712 755.709 46.0596 756.058C45.848 756.406 45.7389 756.941 45.7324 757.664V759.109C45.7324 759.878 45.8431 760.446 46.0645 760.813C46.2891 761.178 46.6276 761.36 47.0801 761.36C47.526 761.36 47.8564 761.188 48.0713 760.843C48.2894 760.498 48.4033 759.954 48.4131 759.212V757.732Z" fill="black"/>
</g>
<defs>
<clipPath id="clip0">
<rect width="5000" height="800" fill="white"/>
</clipPath>
</defs>
</svg>
